<svg xmlns="http://www.w3.org/2000/svg" xmlns:xlink="http://www.w3.org/1999/xlink" width="278" height="108">
  <defs>
    <style>
      .cls-1,.cls-11{fill:#534741}.cls-3,.cls-9{fill:#333}.cls-11,.cls-3,.cls-8{opacity:.23}
    </style>
    <linearGradient id="linear-gradient" x1="225" y1="4" x2="225" y2="94" gradientUnits="userSpaceOnUse">
      <stop offset="0" stop-color="#736357"/>
      <stop offset="1" stop-color="#534741"/>
    </linearGradient>
    <linearGradient id="linear-gradient-2" x1="66" y1="4" x2="66" y2="94" xlink:href="#linear-gradient"/>
    <linearGradient id="linear-gradient-3" x1="142" y1="17" x2="142" y2="107" gradientUnits="userSpaceOnUse">
      <stop offset="0" stop-color="#998675"/>
      <stop offset="1" stop-color="#736357"/>
    </linearGradient>
  </defs>
  <g id="Layer_2" data-name="Layer 2">
    <g id="Crates">
      <g id="CrateRight">
        <path class="cls-1" d="M272 78a12 12 0 0 1-3 8l-4 4a9 9 0 0 1-6 3l-81 2c-2 0-19-9-20-11l2-55a4 4 0 0 1 1-3l22-22a8 8 0 0 1 5-2l58-1c10 0 15 8 16 10l10 23"/>
        <path d="M199 5l55-1a6 6 0 0 1 4 2l18 22a8 8 0 0 1 2 5v45a12 12 0 0 1-3 8l-3 4a8 8 0 0 1-7 3l-80 1a8 8 0 0 1-5-2l-6-5a9 9 0 0 1-2-6l1-50a4 4 0 0 1 1-2l20-22a7 7 0 0 1 5-2z" fill="url(#linear-gradient)"/>
        <path class="cls-3" d="M191 26c-2 1-6 4-6 6l3 2c2 2 5 5 7 4 2 0 2-4 3-6 0-1 2-5 1-7s-6 0-8 1zM226 62c-2 1-6 4-6 6 0 3 3 2 3 2l7 4c6 5 7-4 3-5-2-1 2-6 1-7s-6-1-8 0zM187 94l79-1 4-2-4-4c-2-2-5-2-10-4-1-1-2 4-3 4-1 1-3-1-4-1l-1 3a6 6 0 0 1-3 0 15 15 0 0 1-2 0l-4-2-3 3a4 4 0 0 1-6-1c-1-1-4 2-5 1l-3-2c-1-1-4 5-2-2l-6 1c-3 1-3-5-4-5l-4-1-3 4-7 1c0 1 4 4 3 5s-5-1-7-1c-1-1-4 2-5 1-1 0-3-4-4-3l-3-1-1 4 3 3h5zM250 63c2-1 0 6 2 6l6-4c2 1 4-5 4-7l-6-2c-2 0-6-2-7-1s-1 8 1 8zM195 11c3 2 10 3 13 3l14-1 8 1 8-1h7c4 0 11 2 14 0h-1c-9-1-5-4-7-4l-2 1a8 8 0 0 1-2 1l-2-1h-1a7 7 0 0 1-1 0 7 7 0 0 0-2-1l-2 1a14 14 0 0 1-3 1h-1a10 10 0 0 0-2 0h-2a10 10 0 0 1-2 1 6 6 0 0 1-2-1l-2-1-3-1-1-1-1 1-1 1-1 1-3 1-2 1h-4a12 12 0 0 1-2-1 4 4 0 0 1-1 0v-1a8 8 0 0 0-3 0 15 15 0 0 1-2 0 13 13 0 0 1-2 0 12 12 0 0 0-2-1h-3l1 1zM208 21c-2 3-3 9-3 12l1 11-1 8 1 7c1 2 0 4-1 6 0 3-2 10 0 12v-1c1-7 4-4 4-6l-1-1a7 7 0 0 1-1-2l1-2v-1a6 6 0 0 0 1-2l-1-3a12 12 0 0 1 0-2v-1a9 9 0 0 0 0-1 16 16 0 0 0-1-2 9 9 0 0 1-1-2 5 5 0 0 1 1-2l1-1 1-3 1-1-1-1-1-1h-1a12 12 0 0 1-1-3l-1-2 1-1v-2a10 10 0 0 1 0-2 4 4 0 0 1 1-1h1a7 7 0 0 0 0-3 11 11 0 0 1-1-2 12 12 0 0 1 1-1 11 11 0 0 0 0-2v-2c0-1 0 0 0 0zM234 23c6 0 19-4 23 0 5 5 4 23 0 29l-2 2-1-5v-4h-3l-2-2-6 3-2-3-1-6c-1-1-5 3-6 4 0 0 0-1 0 0-1 2-5 6-8 6-2 0-4-4-4-6s4-6 4-9c0-1-4-3-4-5v-4c2-2 9 0 12 0zM271 32c2 3 2 9 3 12s-2 9-2 12l1 7-1 7v6c0 3 2 10-1 12v-1c0-7-3-4-3-6l1-1a7 7 0 0 0 1-2l-1-2v-1a6 6 0 0 1-1-2l1-2a13 13 0 0 0 1-2v-2a10 10 0 0 1 0-1 18 18 0 0 1 1-2 9 9 0 0 0 0-2 5 5 0 0 0 0-2l-1-1-1-3-1-1 1-1 1-1a11 11 0 0 0 2-3l1-1-1-2v-2a10 10 0 0 0 0-2 4 4 0 0 0-1-1 7 7 0 0 1 0-3 12 12 0 0 0 0-2 11 11 0 0 0 0-1 10 10 0 0 1-1-2v-2h1z"/>
      </g>
      <g id="CrateLeft">
        <path class="cls-1" d="M114 77a12 12 0 0 1-3 8l-4 4a9 9 0 0 1-6 3l-81 2c-2 0-19-9-20-11l2-55a4 4 0 0 1 1-3L25 3a8 8 0 0 1 5-2l58-1c5 0 10 4 11 6l15 27"/>
        <path d="M40 5l55-1a6 6 0 0 1 4 2l18 22a8 8 0 0 1 2 5v45a12 12 0 0 1-3 8l-3 4a8 8 0 0 1-6 3l-81 1a8 8 0 0 1-5-2l-6-5a9 9 0 0 1-2-6l1-50a4 4 0 0 1 1-2L35 7a7 7 0 0 1 5-2z" fill="url(#linear-gradient-2)"/>
        <path class="cls-3" d="M95 24c2 1 6 4 6 6l-3 2c-2 2-5 5-7 4-2 0-2-4-3-6 0-1-2-5-1-7s6 0 8 1zM89 63c2 1 6 4 6 6 0 3-3 2-3 2l-7 4c-6 5-7-4-3-5 2-1-2-6-1-7s6-1 8 0zM102 92l-79-1-4-2 4-4c2-2 5-2 10-4 1-1 2 4 3 4 1 1 3-1 4-1l1 3a6 6 0 0 0 3 0 15 15 0 0 0 3 0l3-2 3 3a4 4 0 0 0 6-1c1-1 4 2 5 1l3-2c1-1 4 5 2-2l6 1c3 1 3-5 4-5l4-1 4 4 6 1c0 1-4 4-3 5s5-1 7-1c1-1 4 2 5 1 1 0 3-4 4-3l3-1 1 4-3 3h-5z"/>
        <path class="cls-3" d="M60 74c-2-1 0 6-2 6l-6-4c-2 1-4-5-4-7l6-2c2 0 6-2 7-1s1 8-1 8zM96 14c-3 2-10 3-13 3l-14-1-8 1-8-1h-7c-4 0-11 2-14 0h1c9-1 5-4 7-4l2 1a8 8 0 0 0 2 1l2-1h1a8 8 0 0 0 1 0 7 7 0 0 1 2-1l2 1a14 14 0 0 0 3 1h1a10 10 0 0 1 2 0h2a10 10 0 0 0 2 1 6 6 0 0 0 2-1l2-1 3-1 1-1 1 1 1 1 1 1 3 1 2 1h4a12 12 0 0 0 2-1 4 4 0 0 0 1 0v-1a8 8 0 0 1 3 0 15 15 0 0 0 2 0 13 13 0 0 0 2 0 12 12 0 0 1 2-1h3l-1 1zM111 28c2 3 3 9 3 12l-1 11 1 8-1 7c-1 2 1 4 1 6 0 3 2 10 0 12v-1c-1-7-4-4-4-6l1-1a7 7 0 0 0 1-2l-1-2v-1a6 6 0 0 1-1-2l1-3a12 12 0 0 0 0-2v-1a10 10 0 0 1 0-1 18 18 0 0 1 1-2 9 9 0 0 0 1-2 5 5 0 0 0-1-2l-1-1-1-3-1-1 1-1 1-1h1a11 11 0 0 0 1-3l1-2-1-1v-2a10 10 0 0 0 0-2 4 4 0 0 0-1-1l-1-1a7 7 0 0 1 0-2 12 12 0 0 0 1-2 12 12 0 0 0-1-1 11 11 0 0 1 0-2v-2c0-1 0 0 0 0zM62 31c-6 0-19-4-23 0-5 5-4 23 0 29l2 2 1-5v-4h3l2-2 6 3 2-3 1-6c1-1 5 3 6 4 0 0 0-1 0 0 1 2 5 6 8 6 2 0 4-4 4-6s-4-6-4-9c0-1 4-3 4-5v-4c-2-2-9 0-12 0zM22 25c-2 3-2 9-3 12s1 9 1 11l-1 8 1 7-1 6c0 3-2 10 0 12v-1c1-7 4-4 4-6l-1-1a8 8 0 0 1-1-2l1-2v-1a6 6 0 0 0 1-2l-1-2a11 11 0 0 1 0-2v-2a9 9 0 0 0 0-1 16 16 0 0 0-1-2 9 9 0 0 1 0-2 5 5 0 0 1 0-2l1-1 1-3 2-1-2-1v-1h-1a11 11 0 0 1-1-3l-1-2 1-1v-2a10 10 0 0 1 0-2 3 3 0 0 1 0-1h1a7 7 0 0 0 0-3 12 12 0 0 1 0-2 12 12 0 0 1 1-1 10 10 0 0 0 0-2v-2h-1z"/>
      </g>
      <g id="CrateCenter">
        <path d="M190 91a12 12 0 0 1-3 8l-4 4a9 9 0 0 1-6 3l-81 2c-2 0-19-9-20-11l2-55a4 4 0 0 1 1-3l22-22a8 8 0 0 1 5-3h58c10 2 12 6 13 8l18 22" fill="#736357"/>
        <path d="M116 18l55-1a6 6 0 0 1 4 2l18 22a8 8 0 0 1 2 5v45a12 12 0 0 1-3 8l-3 4a8 8 0 0 1-7 3l-80 1a8 8 0 0 1-5-2l-6-5a9 9 0 0 1-2-6l1-50a4 4 0 0 1 1-2l20-22a7 7 0 0 1 5-2z" fill="url(#linear-gradient-3)"/>
        <g id="TXH1138">
          <path id="T" class="cls-3" d="M96 87h2l4 3v-7h2v7l4-3h2l-5 5h-4l-5-5z"/>
          <g id="H" class="cls-8">
            <path class="cls-9" d="M114 83h14v2h-14zM116 86h9v2h-9zM114 90h14v2h-14z"/>
          </g>
          <path id="X" class="cls-3" d="M138 83h-2l-5 8 2 1h7l2-2zm-4 7l2-5h1l3 5z"/>
          <path id="_1" data-name="1" class="cls-3" d="M146 83h4v6h2v2h-6v-2h3v-5h-3v-1z"/>
          <g id="_3" data-name="3" class="cls-8">
            <path class="cls-9" d="M175 83h-7v2h5v4h-5v2h7v-8z"/>
            <path class="cls-9" d="M168 87h5v1h-5z"/>
          </g>
          <path id="_8" data-name="8" class="cls-3" d="M187 83h-8v8h8zm-1 6h-6v-1h6zm0-3h-6v-1h6z"/>
          <path id="_1-2" data-name="1" class="cls-3" d="M157 83h4v6h2v2h-6v-2h2v-5h-2v-1z"/>
        </g>
        <path class="cls-11" d="M151 55c-2 1-6 4-6 6l3 2c2 2 5 5 7 4 2 0 2-4 3-6 0-1 2-5 1-7s-6 0-8 1zM168 63c-2 1-6 4-6 6 0 3 3 2 3 2l7 4c6 5 7-4 3-5-2-1 2-6 1-7s-6-1-8 0zM104 107l79-1 4-2-4-4c-2-2-5-2-10-4-1-1-2 4-3 4-1 1-3-1-4-1l-1 3a6 6 0 0 1-3 0 15 15 0 0 1-2 0l-4-2-3 3a4 4 0 0 1-6-1c-1-1-4 2-5 1l-3-2c-1-1-4 5-2-2l-6 1c-3 1-3-5-4-5l-4-1-3 4-7 1c0 1 4 4 3 5s-5-1-7-1c-1-1-4 2-5 1-1 0-3-4-4-3l-3-1-1 4 3 3h5zM168 44c2-1 0 6 2 6l6-4c2 1 4-5 4-7l-6-2c-2 0-6-2-7-1s-1 8 1 8zM110 29c3 2 10 3 13 3l14-1 8 1 8-1h7c4 0 11 2 14 0h-1c-9-1-5-4-7-4l-2 1a8 8 0 0 1-2 1l-2-1h-1a7 7 0 0 1-1 0 7 7 0 0 0-2-1l-2 1a14 14 0 0 1-3 1h-1a10 10 0 0 0-2 0h-2a10 10 0 0 1-2 1 6 6 0 0 1-2-1l-2-1-3-1-1-1-1 1-1 1-1 1-3 1-2 1h-4a12 12 0 0 1-2-1 4 4 0 0 1-1 0v-1a8 8 0 0 0-3 0 15 15 0 0 1-2 0 13 13 0 0 1-2 0 12 12 0 0 0-2-1h-3l1 1zM95 43c-2 3-3 9-3 12l1 11-1 8 1 7c1 2-1 4-1 6 0 3-2 10 0 12v-1c1-7 4-4 4-6l-1-1a7 7 0 0 1-1-2l1-2v-1a6 6 0 0 0 1-2l-1-3a12 12 0 0 1 0-2v-1a9 9 0 0 0 0-1 16 16 0 0 0-1-2 9 9 0 0 1-1-2 5 5 0 0 1 1-2l1-1 1-3 1-1-1-1-1-1h-1a12 12 0 0 1-1-3l-1-2 1-1v-2a10 10 0 0 1 0-2 4 4 0 0 1 1-1h1a7 7 0 0 0 0-3 11 11 0 0 1-1-2 12 12 0 0 1 1-1 11 11 0 0 0 0-2v-2c0-1 0 0 0 0zM114 39c6 0 19-4 23 0 5 5 4 23 0 29l-2 2-1-5v-4h-3l-2-2-6 3-2-3-1-6c-1-1-5 3-6 4 0 0 0-1 0 0-1 2-5 6-8 6-2 0-4-4-4-6s4-6 4-9c0-1-4-3-4-5v-4c2-2 9 0 12 0zM184 38c2 2 3 8 4 11v11l3 8v13c1 3 4 9 2 12v-1c-2-8-4-4-4-6l1-1a7 7 0 0 0 0-2l-1-2v-1a7 7 0 0 0-1 0 6 6 0 0 1-1-2l1-2a11 11 0 0 0 0-3v-1a9 9 0 0 1 0-1 16 16 0 0 1 0-2 9 9 0 0 0 1-2 5 5 0 0 0-1-2l-2-1-1-3-1-1 1-1 1-1c1-1 0 0 0 0a12 12 0 0 0 1-3l1-2-1-1v-2a10 10 0 0 0-1-2 3 3 0 0 0 0-1h-1a7 7 0 0 1-1-3 12 12 0 0 0 0-2v-1a10 10 0 0 1-1-2v-2l1 1z"/>
      </g>
    </g>
  </g>
</svg>
