<svg xmlns="http://www.w3.org/2000/svg" xmlns:xlink="http://www.w3.org/1999/xlink" viewBox="0 0 1920 447">
  <defs>
    <style>
      .cls-1{fill:url(#linear-gradient)}.cls-2{opacity:.1}.cls-3{fill:url(#linear-gradient-2)}.cls-4{fill:url(#linear-gradient-3)}.cls-5{fill:#38251c;opacity:.16}.cls-6{fill:url(#linear-gradient-4)}.cls-7{fill:url(#linear-gradient-5)}.cls-8{fill:#333}
    </style>
    <linearGradient id="linear-gradient" x1="960.04" y1="219.71" x2="960.04" y2="46.22" gradientUnits="userSpaceOnUse">
      <stop offset="0" stop-color="#a27d57"/>
      <stop offset=".32" stop-color="#a07a52"/>
      <stop offset="1" stop-color="#9f794f"/>
    </linearGradient>
    <linearGradient id="linear-gradient-2" x1=".05" y1="113.37" x2="1924.46" y2="113.37" gradientUnits="userSpaceOnUse">
      <stop offset="0" stop-color="#573e29"/>
      <stop offset=".31" stop-color="#5f422c"/>
      <stop offset="1" stop-color="#6c4930"/>
    </linearGradient>
    <linearGradient id="linear-gradient-3" x1="825.58" y1="151.65" x2="818.3" y2="89.12" gradientUnits="userSpaceOnUse">
      <stop offset=".13" stop-color="#573e29"/>
      <stop offset=".24" stop-color="#5a402a"/>
      <stop offset=".32" stop-color="#5e422b"/>
      <stop offset=".63" stop-color="#69472f"/>
      <stop offset="1" stop-color="#6c4930"/>
    </linearGradient>
    <linearGradient id="linear-gradient-4" x1="75.1" y1="915.41" x2="1163.25" y2="150.13" gradientUnits="userSpaceOnUse">
      <stop offset="0" stop-color="#736357"/>
      <stop offset=".09" stop-color="#806750"/>
      <stop offset=".24" stop-color="#8b6a49"/>
      <stop offset=".44" stop-color="#926c45"/>
      <stop offset="1" stop-color="#946d44"/>
    </linearGradient>
    <linearGradient id="linear-gradient-5" x1="446.27" y1="304.87" x2="1912.65" y2="304.87" gradientTransform="rotate(4.47 1283.52370467 297.23812958)" xlink:href="#linear-gradient-2"/>
  </defs>
  <g id="Layer_2" data-name="Layer 2">
    <g id="Ground">
      <g id="Far">
        <path class="cls-1" d="M.07 11s357.27-1.75 508.74-2.46C566.88 8.27 735.59.28 793.66 0c87.34-.4 302.45 9 389.8 8.54 67.42-.32 166.45-6.37 233.87-6.82 68.64-.46 249.2 5.7 317.84 5.11C1782 6.43 1920.07 0 1920.07 0v254H.07c-.21-51 .12-213 0-243z"/>
        <g class="cls-2">
          <path class="cls-3" d="M1917.15 158.62c-3-5.2-.49-9.33-6-11.62-4.69-1.95-6.81 6.7-11.86 6.15s-4.2-8.39-9.24-8.93-5.09-.21-10.13-.75-5.55 4.09-10.6 3.54-5-1.2-10-1.74-4.81-2.76-9.85-3.31-4.93-1.69-10-2.23-9.46 8.42-13.31 5.11c-2.41-2.07 2.22-7.42 4.67-9.44 3.57-3 4.91.34 9.34-1s4-2.7 8.46-4 3.4-4.8 7.84-6.12 7.34 4.44 9.57.38-1.52-4.1-2.84-8.47-4.53-5-2.07-8.81c2.72-4.24 4-4.38 8.9-5.59s6.32 4.58 11.22 3.37 4.65-2.19 9.55-3.41 3.69-6 8.58-7.26 4.77-1.73 9.67-2.94 11.68 7.68 14.27 3.34c3.61-6-2-9.29-4.38-15.9-2.36-6.42-4.31-3.44-10.29-6.76-4.33-2.39-2.76-6.94-7.71-7s-5 2.78-10 2.68-4.9-2.39-9.85-2.48-5 3.93-10 3.83-4.85-5-9.8-5.15-5 3.24-10 3.15-5 2.53-9.95 2.44-4.86-4.68-9.81-4.78-5.07 6-10 5.86-4.8-7.83-9.76-7.92-9.31 8.64-11.53 4.21c-2-4 4.9-3.74 8.47-6.4s3-3.45 6.56-6.11 12.42-.38 11.76-4.79c-.92-6.15-7.56-4.53-12.16-8.71s-13.5-1.66-12.62-7.81c.74-5.18 7.69-2.81 12.92-3s5.22-.34 10.45-.56 5.39 3.45 10.62 3.23 5.15-2.23 10.38-2.45 5.47 5.43 10.7 5.2 4.94-7.11 10.17-7.33 5.45 5 10.68 4.83 5-6.84 10.19-7.06 5.54 7.05 10.77 6.82 5.24.08 10.48-.14 6.45.65 11.37-1.15c1.59-.58-3.65-4.14-3.9-5.81-.72-4.62-1.86-4.22-2.84-8.8s5.09-6.36 3-10.55c-2.55.12-7.09 3.3-11.23 3.44-3 .1-6.35 2.24-10.06 2.35-3.15.1-6.72-6.47-10.29-6.37-3.23.08-6.45 6-10 6.11-3.26.08-6.74-3.64-10.2-3.55-3.3.08-6.77-3.88-10.21-3.79s-6.49 8.62-9.91 8.7-6.73-4.47-10.13-4.37-6.81-3.78-10.21-3.7-6.67 3.82-10 3.89-6.84-3.72-10.19-3.66-6.67 5.7-10 5.76-6.73 3.27-10 3.33-6.86-2.09-10.16-2c-3.47.06-6.85.36-10.12.41-3.51.06-6.87 1.81-10.09 1.86-3.58.05-7-2.53-10.16-2.49-3.71 0-7.15-5.23-10.15-5.21-3.25 0-6.71 1.3-10.38 1.34-3.3 0-6.76 1.31-10.38 1.35-3.34 0-6.8.5-10.38.54-3.36 0-6.81 2.5-10.37 2.53-3.38 0-6.82 2.19-10.37 2.22-3.39 0-6.9-5.33-10.43-5.3s-6.87-.64-10.39-.62-6.86 3.63-10.36 3.64-6.9-3.25-10.4-3.24-6.98 4.35-10.47 4.35-6.91 1.67-10.4 1.66-6.89-5.29-10.38-5.31-6.9-.75-10.38-.77-7 6.56-10.44 6.53-6.89-3.46-10.37-3.51-6.86-4.6-10.32-4.6-6.9-1-10.37-1.09-6.59 2.06-10 2c5.38 1.06 5.27 1 10.7 1.8s4.78 5.33 10.21 6.1 5.6-.43 11 .33 8.09-4.69 10.13.4c1.79 4.47-3.7 1-8.4 2s-4.23 3.19-8.93 4.24-4.93.08-9.63 1.13-4.64 1.37-9.34 2.42-5.39-2-10.1-.95-6.62-1.13-10.26 2c-4.37 3.8.14 7.24-2.36 12.47s-11 5.34-8.75 10.67c2.08 4.89 6.71 3.5 11.91 4.62s6-2.72 11.23-1.6 5.58-.61 10.78.51 4.23 5.63 9.43 6.75 6.26-3 11.33-1.38c4.91 1.57 5.18 1.36 9.9 3.42s4.09 3.51 8.81 5.57 5.55.14 10.28 2.19 4.35 2.89 9.08 5 3.4 5.08 8.13 7.13 8.86-2.43 8.7 2.72-3 3-7.86 4.39-5.54-1.23-10.37.11-4.36 3-9.19 4.38-4.71 1.79-9.54 3.13-9-3.82-8.21 1.14c.77 5.23 3.69-.32 8.88.7s5.24.75 10.42 1.78 4.53 4.35 9.72 5.37 4.92 2.38 10.1 3.4 7.15-5 9 0c1.77 4.59-1.49 2.85-4.93 6.36s-1.58 5.35-5 8.86-7.24-.2-10.68 3.32-.33 7.4-4.93 9.14c-5.22 2-5.68-1-11.26-1.1s-5.64 3.28-11.22 3.17-5.5-4.24-11.07-4.35-5.52-3.19-11.1-3.3-5.35.33-10.92-.1c-5.14-.4-5 .61-10.13-.12s-5.34.86-10.45.13-5.86 4.6-11 3.88-4.49-5.13-9.6-5.86-5.35 1-10.46.23-5.18-.28-10.29-1-4.88-2.37-10-3.1-4.93-2-10-2.77-4.79-1.83-9.84-2.89c-4.82-1-5.26 1.22-10-.11s-3.68-5.11-8.42-6.44-6 3.24-10.77 1.91-3.56-5.53-8.3-6.87-5.65 1.89-10.39.55-4-3.93-8.75-5.27-6 4.85-10.89 4.13a46.17 46.17 0 0 0-9.23-.86c-4.87-.09-4.83-2.18-9.7-2.27s-4.9 1.63-9.77 1.53-4.87-.23-9.74-.32-4.84-1.54-9.71-1.63-4.82-2.91-9.69-3c-5.31-.11-5.32 0-10.63-.1s-5.33 1.23-10.64 1.12-5.24-4.13-10.55-4.23-5.36 2.37-10.67 2.27-5.36 2.2-10.67 2.09-5.25-3.24-10.57-3.34-5.43 5.8-10.74 5.69-8.65 1.37-10.79-3.49c-2-4.48 4-4.9 8.76-6.12s5-.22 9.73-1.45 4.3-2.88 9-4.1 6.63 6.14 11.37 4.91 3.71-5.2 8.44-6.42 4.77-1.1 9.51-2.32 4.85-.78 9.58-2c5.31-1.4 4.87-3 10.17-4.46s4.75-3.47 10-4.9 7.42 6.4 12.72 5 3.31-8.81 8.61-10.24 5.34-1.31 10.65-2.74 6.41 4.74 8-.53.21-3.47-3.42-7.76-5-3.14-8.61-7.42-2.13-5.56-5.76-9.85-9.88-3.05-8.28-8.43c1.45-4.88 5.36-3.47 10.42-4s5.23 1 10.29.51 5.41 2.85 10.47 2.32 5.23 1 10.29.49 5.13.13 10.19-.41 4.28-8 9.34-8.49 5.72 5.73 10.78 5.2 4.45-6.35 9.51-6.88 5.1-.14 10.16-.68 5.13.07 10.19-.46 5.3 1.72 10.36 1.19 5.07-.39 10.13-.93 4.92-1.87 10-2.4 4.85-2.57 9.91-3.1 5.77 6.11 10.83 5.58 4.37-7.07 9.44-7.6 5.07.81 10.08-.12c4.34-.81 3.48-3.29 7.72-4.49s4.17.49 8.13-1.47c-3.46-.07-5.51 6-8.93 5.89s-6.83-3.58-10.25-3.67-7 1.67-10.39 1.57-6.83-3.53-10.24-3.63-7.08 4.66-10.48 4.56-6.87-2.51-10.26-2.61-7 2.65-10.42 2.55-6.74-8.27-10.1-8.37c-3.55-.09-7.06 2.06-10.41 2-3.57-.09-7.12 4.63-10.43 4.57-3.61-.07-7-.1-10.31-.13-3.67 0-7.07 1.33-10.27 1.35s-6.76-1.43-10.26-1.39c-3.35.05-6.89-6.93-10.37-6.87s-6.62 8.51-10.1 8.59-6.84-2.14-10.3-2.06-7-5.88-10.42-5.79-6.61 7.27-10.06 7.37-6.88-2.07-10.33-2-6.79 1.18-10.22 1.29-6.88-1.49-10.32-1.38-6.9-1.89-10.33-1.77-6.74 3.12-10.16 3.24-6.75 2.92-10.17 3-7-5-10.44-4.87-6.73 4-10.14 4.13-7-4.6-10.41-4.49-6.69 5.88-10.09 6-7-4.58-10.4-4.49-6.7 6.86-10.09 7-6.9-.57-10.29-.49-7-6.34-10.4-6.27-6.81 5-10.18 5-7-4.09-10.31-4-6.89 5-10.23 5-6.66-4.49-10.24-4.51c-3.28 0-6.73 4.24-10.27 4.2-3.31 0-6.75.68-10.27.62-3.32-.06-6.67-4-10.17-4.07-3.33-.07-6.7-1.94-10.19-2s-6.78.68-10.25.58-6.69-2.93-10.16-3-7 6.42-10.43 6.32-6.62-5.26-10.07-5.37-6.94 4.46-10.39 4.34S1072 9 1068.56 8.9s-6.88 2.37-10.32 2.25-6.69-3.46-10.12-3.58-6.81-.12-10.24-.24-6.76-1.38-10.18-1.5-7 5.35-10.45 5.22-6.78-1.06-10.2-1.19-6.88 1.29-10.29 1.17-6.84.21-10.26.08-6.65-4.89-10.06-5-6.76-2.26-10.17-2.39-6.95 2.93-10.35 2.81-6.8-1.43-10.2-1.55-7 5.29-10.44 5.17-6.65-5.53-10-5.65-6.92 2-10.31 1.85-6.7-4.79-10.08-4.9-7.07 6-10.45 5.86-6.7-5.36-10.08-5.46-7 3.38-10.35 3.28-7.01 1.74-10.34 1.65-6.74-5.28-10.1-5.37-7 2.34-10.3 2.26S836.43.39 833.09.33c-3.5-.08-7.09 6.92-10.37 6.87-3.52-.06-6.9-1.88-10.2-1.92-3.54 0-6.93-3.54-10.21-3.55-3.58 0-7 2.52-10.23 2.53-2.92 0-5.73-3.56-8.86-3.77-2.81-.19-5.86.38-9.08.24-2.78-.11-7.44 1.27-10.69 1.36.19 4.71 4.92 2.67 2.21 6.54-3.44 4.9-3 2.86-8.79 4.24s-6.21-.21-12 1.17-5.41 3.12-11.27 4.42-5.83 2-11.83 3.23-6.47-.42-12.32 1.4c-5.45 1.69-4.06 5.28-9.3 7.53s-6 4.61-11.61 3.61c-5.88-1-6.8-2.32-11.26-6.31s-2.5-6.16-7-10.15-6-2.92-9.5-7.8c-.95-1.35 6.37-5.1 5.34-6.38-3.4.22-9.84 3-13.24 3.22s-6.64 2.86-10 3.08-6.93-1.28-10.31-1.07-7-2.94-10.41-2.72-6.5 5.69-9.87 5.9-7-3.14-10.42-2.93S595 8.79 591.61 9s-6.88-.17-10.23 0-6.52 6.61-9.86 6.8-7.1-3.74-10.42-3.57c-3.49.18-6.8 2.31-10.11 2.46-3.52.17-7-1.19-10.29-1-3.54.15-7.08-3.6-10.34-3.49-3.59.12-7-.8-10.19-.73-3.68.09-7 1-10.12 1-3.35 0-6.78 4.1-10.32 4.12-3.37 0-6.8 3.76-10.33 3.78-3.38 0-6.85-6.45-10.37-6.44s-6.81 5.59-10.32 5.61-6.86-4.83-10.36-4.82-6.85.47-10.34.49-6.84 3.71-10.33 3.73-6.88-6.15-10.37-6.13-6.84 5.8-10.32 5.81-6.88-3.55-10.36-3.54-6.87-1.44-10.35-1.42-6.85 6.73-10.28 6.74-6.89-3.79-10.36-3.78-6.93-3.62-10.4-3.62-6.85 7.76-10.31 7.78-6.9-3.9-10.36-3.88-6.89-2-10.35-2-6.88 2.18-10.34 2.2-6.9-2-10.35-2-6.9.36-10.35.37-6.87 6-10.32 6-6.91-1-10.36-1-6.9-.94-10.35-.93-6.91-1.32-10.36-1.31-6.92-2.32-10.36-2.3-6.89 3.83-10.33 3.85-6.92-2.17-10.36-2.16-6.91 1-10.35 1.06-6.94-5.41-10.37-5.4-6.9 5.29-10.33 5.3-6.93-1.72-10.35-1.7-6.91 3.69-10.34 3.71-6.94-3.6-10.37-3.58-6.93-.27-10.35-.25-6.93.08-10.35.1-7-2.1-10.36-2.09-6.94-.14-10.35-.13-6.92 6.22-10.32 6.23-7-2.55-10.36-2.54-7-4.95-10.37-4.93c-3.53 0-7 5.65-10.33 5.66-3.53 0-7-4.34-10.36-4.33-3.56 0-7 1.84-10.34 1.85-3.58 0-7 3.86-10.33 3.88-3.61 0-7.07-.77-10.35-.76-3.66 0-7.14-5.52-10.37-5.51-3.76 0-7.21 1.94-10.34 1.95-4 0-7.44 3.49-10.33 3.5-6.7 0-5.23-2.35-10.27-1.22 0 .8 1.63 4.07 1.79 9.75.06 2.83-.71 6.26-.6 10.09.09 3.12 1.78 6.47 1.89 10.09C6.32 49.56 0 53.14.05 56.66c.1 3.28 3.94 6.56 4 10C4.18 70 .31 73.5.41 76.93s5.38 6.58 5.48 10S7.46 93.63 7.56 97 3 103.93 3.1 107.28s4.46 6.7 4.55 10 2.11 6.8 2.2 10.09c.09 3.51-3.59 7-3.51 10.23.09 3.59-.33 7-.25 10.15.09 3.76 3.2 7.1 3.26 10.07.09 4.48-2.67 9.53-2.66 11.69 5 1.27 5.36 2.87 10.52 3.09s5.27-2.39 10.43-2.17S33 166 38.16 166.25s5.09 1.7 10.25 1.92 5.16.29 10.32.51 5.12 1.14 10.28 1.37 5 3.5 10.17 3.73 5.46-6.65 10.62-6.43 4.82 7.93 10 8.16 5.41-5.54 10.57-5.32 5.07 2.26 10.23 2.48 5.14.8 10.3 1 5.23-1.51 10.39-1.29 5.1 1.66 10.26 1.89 5 2.81 10.2 3 5.08 2.13 10.24 2.36 5.17.14 10.32.36 5.34-3.75 10.5-3.53 5 4.15 10.14 4.38 5.55-8.58 10.71-8.36 5 3.47 10.18 3.69 5.29-2.71 10.45-2.48 4.83 7.63 10 7.86 5.2-.58 10.36-.36 5.11 1.4 10.27 1.62 5.4-5.17 10.56-5 5 3 10.2 3.19 5.35-4.15 10.51-3.92 4.92 5.83 10.08 6 5.06 2.36 10.23 2.59 5.41-5.58 10.57-5.36 5.26-2 10.42-1.78 5.09 1.79 10.25 2 5 3.72 10.17 3.95 5.12 1.13 10.28 1.35 5.17 0 10.34.25 5.29-2.72 10.45-2.49 5.07 2.34 10.23 2.57 5.13.81 10.29 1 5.44-5.95 10.6-5.72 5 4.05 10.15 4.28 5 3.14 10.2 3.36 5.45-6.39 10.61-6.17 5 3.09 10.2 3.31 5.2-.61 10.36-.39 5.17.07 10.33.29 5.05 2.79 10.21 3 5.13 1 10.29 1.24 5.13.74 10.29 1 5.28-2.53 10.44-2.3 5.18-.06 10.34.16 5.19-.36 10.35-.14 5.26-2 10.42-1.8 5 3.47 10.18 3.7 5 3 10.21 3.22 5.25-2 10.42-1.75 5.14.64 10.3.86 5.34-3.69 10.5-3.46 5.08 2.12 10.24 2.35 5.08 2.25 10.24 2.48 5.22-1.07 10.38-.84 5.17-.06 10.34.16 5.27-2.23 10.43-2 4.8 8.69 10 8.91 5.3-2.95 10.46-2.72 5.18 0 10.35.2 4.91 3.52 10.07 3.89 5.46-2.94 10.7-2.43 5.41-1.18 10.65-.67 5.45-1.7 10.7-1.18 5 2.76 10.25 3.27 4.82 4.91 10.05 5.42 5.83-5.49 11.07-5 5.41-1.17 10.65-.66 4.93 3.68 10.18 4.19 5.19 1 10.43 1.55 5.14 4 10.41 4.05c5.1.09 5.4 1.06 10.5.72s5.12.12 10.22-.22 4.63-7.28 9.72-7.61 5.24 1.82 10.33 1.48 5.24 1.74 10.33 1.4 5.12 0 10.21-.31 5.14.24 10.23-.1 5.09-.41 10.19-.74 4.94-2.59 10-2.93 4.84-4.2 9.94-4.54 5.22 1.66 10.32 1.32 5.18 1 10.28.71 4.8-4.69 9.9-5 5.39 4.15 10.49 3.81 5.21 1.51 10.31 1.17 4.72-5.91 9.81-6.25 5.32 3.1 10.42 2.76 5-1.58 10.1-1.92 5.43 4.67 10.52 4.33 5.05-1 10.15-1.34 4.78-5 9.88-5.32 5.39 4.07 10.48 3.73 5.18.94 10.28.6 5-1.76 10.09-2.1 5-2 10.08-2.3 4.75-5.6 9.85-5.94 5.45 5 10.54 4.68 4.77-5.37 9.86-5.71 5.32 3.06 10.42 2.72 5.43 4.72 10.52 4.38 4.58-8.16 9.67-8.5 5.5 5.72 10.6 5.38 5-1.46 10.12-1.8 4.79-5 9.89-5.33 4.31 3.64 9 5.69c5 2.21 1.86 3.68 5.47 7.84s8.68-.24 12.28 3.92-.68 7.88 2.93 12 3.26 7.78 8.48 9.54c4.81 1.62 6.48-2.78 11.4-4.07s5.06-.72 10-2 4.71-2.07 9.62-3.36 4.24-3.86 9.15-5.15 4.1-4.42 9-5.71 6.9 6.26 11.81 5 5-.84 10-2.13 4.59-2.52 9.5-3.81 5.1-.59 10-1.88 4.32-3.56 9.23-4.85 3.7-5.93 8.61-7.22 5.55 1.12 10.46-.17 4.58-2.61 9.49-3.9 8.22-5.08 11.8-1.47c4.09 4.11-1.8 7.09-2.26 12.88s1.83 6 1.37 11.75-3.57 4.37 0 8.95c3 3.92 1.81 5 6.78 5s5-3 9.94-3 5-3.72 9.94-3.71 5 2.29 9.93 2.3 5 6.35 9.92 6.36 5-3.73 9.94-3.72 5-4.5 9.95-4.49 5 1.08 9.93 1.09 5 4.19 9.93 4.21 5 .88 9.93.89 5-1.21 9.95-1.2 5 .75 9-2.29.27-3.8 1.33-8.46 4-4 5-8.67-2.45-5.47-1.39-10.13 6.25-3.49 7.32-8.15-1.89-5.35-.83-10 .17-4.49 3.73-7.69 3.41-2.68 8.33-3.4 5.34 2.06 10.26 1.34 4.1-6.37 9-7.09 5.41 2.59 10.33 1.87 4.31-1.37 8.72-3.69c3.31-1.74 2.55-1 6.09-2.17 5-1.66 5-4.53 10.19-4s5.33-.54 10.54 0 4.37 8.56 9.58 9.11 5.33-.48 10.54.07 5.2.65 10.42 1.2 5.26.12 10.47.67 5.46-1.79 10.68-1.24 4.84-1.48 7.63 3c2.68 4.27-1.23 2-3.18 6.67s.16 5.53-1.79 10.18 1.9 6.26 0 10.92-9.35 1.54-11.3 6.19 1.42 6.06-.53 10.72-4.7 3.93-1.9 8.13 3 1.11 7.91.84 4.62-4.82 9.5-5.09 5.06 3 9.94 2.76 4.9.12 9.78-.15 4.85-.66 9.73-.93 4.84-1 9.72-1.28 4.51-2.35 9.36-2.92c5.21-.62 5.5 2.42 10.66 1.5s4.58-4.18 9.74-5.11 5.6 1.61 10.76.69 5.19-.76 10.34-1.68 5.42.53 10.58-.4 5-1.74 10.17-2.67 4.53-4.41 9.69-5.33 6.56 6.87 11.72 5.95 4.5-6.05 9.72-5.49c5 .55 3.12 5.67 7.77 7.66s5.73-.54 10.38 1.45 4.86 1.49 9.51 3.48 4.48 2.41 9.13 4.4 3.46 4.75 8.11 6.74 7.62-5.14 12.31-3.14 2.31 8.81 7.24 9.92 5.67-1.93 10.81-1.7 5.32-3.71 10.46-3.48 4.81 7.83 10 8.06 5.21-1.25 10.35-1 5.14.41 10.28.64 5.28-2.91 10.42-2.68 5.11 1.17 10.25 1.4 5.15 0 10.29.26 5.16-.16 10.31.07 5.29-3 10.43-2.77 5 2.49 10.19 2.72 6.57 5.23 10.42 1.8c3.61-3.22.9-5 .92-9.86s-4.44-4.85-4.42-9.69 1-4.83 1-9.67-.09-4.84-.08-9.68 5.42-4.81 5.44-9.65 1.19-4.8 1.26-9.64c0-4.4-4.01-4.23-6.42-8.43zM456.53 89.7c-5.75-.6-4.28-7.6-9.82-9.24S439 86 433.47 84.4s-3.52-9.82-9.19-10.94c-4.75-.93-5.28-.11-10.1-.52s-5.22 4.25-10.05 3.85-4.77-1.05-9.59-1.45-4.65-2.62-9.48-3-6.19 5.19-7 .42-.16-5.57 4.27-7.53 6.26 2.17 10.69.22 5.13-.39 9.56-2.34 3.86-3.28 8.29-5.24 3-5.28 7.4-7.24 5.66.79 10.1-1.17 7.14.85 8.54-3.8-2-4.08-4.65-8.22-10.88-6.36-7.84-10.19c3.28-4.14 7.25 5.59 12.45 6.46s5.37-.13 10.58.74 6-4.06 11.23-3.19 5.3.35 10.5 1.22 3.91 8.67 9.12 9.54 7.77-6.57 11.72-3.05c3.29 2.93 4.39 4.39 5.05 8.75s-6.66 5.46-6 9.82 3.49 3.84 4.14 8.12-1.63 4.61-1 8.89 7.74 6 4.89 9.26c-3.25 3.69-6.47-3.84-11.36-3.3s-4.51 3.86-9.39 4.41-4.26 1.91-8.89 3.56c-5.16 1.82-6.04 1.74-10.93 1.22zM1011 17.63c4.34-1.27 6.19 4.24 10.43 2.67s1.64-8.64 5.88-10.2 5.73 4.88 10.24 4.48c4.71-.41 3.75.41 8.42 1.19s5.44-3.82 10.11-3 4.56 1.43 9.23 2.21 4.3 3 9 3.77 4.49 1.91 9.16 2.7 12.43-7.19 14-2.72c1.94 5.48-6.8 6.68-9.35 11.91s-1.18 5.77-6 9c-3.94 2.61-3.7.73-8.41.31s-5 3.21-9.74 2.79-4.44-3.42-9.15-3.84-4.73-.23-9.45-.65-4.65-1.24-9.37-1.45c-4.93-.21-4.94 3.34-9.88 3.34s-4.93-6-9.86-6-4.94 1-9.87 1-5.31 5.5-10.21 5a67.61 67.61 0 0 1-10.21-1.62c-4.88-1-3.22-8.78-8.11-9.82s-12.91 6.5-11.51 1.71c1.61-5.49 5.45-5.33 11-6.63s7.25 5.89 12.82 4.59 5.16-3.37 10.5-5.42 4.86-3.71 10.33-5.32zm36.28 135.61c-4.85 1.69-7-1.81-10.94 1.52s1 9.07-2.94 12.41-7.16-1.92-11.92 0-3.92.43-9 .8-4.79 5-9.92 5.38-5.16-.29-10.28.08-5.28-1.83-10.43-1.43-5.2-.79-10.32-.42-4.6 7.64-9.72 8-5.44-4.13-10.56-3.77-5.25-1.35-10.37-1-5 1.81-10.14 2.17-4.87 4-10 4.36-5.58-1-10.56-2.28-4.58-2.7-9-5.51-4.06-3.33-8.46-6.14-6.19 0-10.59-2.82-1.17-7.84-5.57-10.65-4.94-2-9.34-4.78-13.6.64-13-4.54 6.84-5 11.85-7S874 143 879 141.08s3.16-6.67 8.17-8.62 3.74-5.19 8.74-7.14 7.69 4.94 12.7 3 3.68-5.52 9-6.58c5-1 5.13 2.2 10.25 2.11s5-4.12 10.16-4.21 5.21 4.86 10.32 4.77 5.06-3.43 10.17-3.52 5.08-2.73 10.2-2.82 5.19 4.49 10.31 4.4 5-6.15 10.13-6.24 11.49 10.09 13.62 5.43c2-4.37-8.31-.52-13-1.25s-4.54-2.07-9.28-2.81-4.9.25-9.65-.49-3.62-.4-5.9-4.63-.26-2.06 1.73-6.45-1.53-6 .46-10.38.74-8.38 5.12-10.4 6.79 1 11.55 2.29 3.79 4.83 8.55 6.12 5.28-.66 10 .63 3.27 6.74 8 8 6.55-5.37 11.31-4.08 3.38 6.37 8.13 7.66 6.49-5.11 11.24-3.82 2.86 8.31 7.62 9.59 5 2.28 9.88 3c5.26.72 5.74-.39 11-.29s5.43-5.84 10.74-5.74 5.33-.82 10.64-.72 5.22 2.79 9.94 5.24 5.88 1.67 9.18 6 4.93 3.13 8.24 7.49-2 8.38 1.29 12.74 8 .84 11.27 5.2 5.54 5.79 3.56 10.89c-1.78 4.57-4.55-4.37-9.44-4.64s-5.36 8.2-10.25 7.93-4.65-4.83-9.54-5.09-4.69-4.16-9.58-4.43-5.09 3.41-10 3.14-4.69-4.12-9.58-4.38-5.2 5.28-10.1 5-4.87 2.66-9.78 2.6c-4.53-.01-4.19-3.95-8.82-2.34z"/>
        </g>
      </g>
      <g id="Hole">
        <path class="cls-4" d="M568.07 127c6-3 386-42 386-42s15.07-1.94 21-2a32.85 32.85 0 0 0 7-1s31.14-5.22 33-6c3.43-1.44 27 2 27 2l13 3 24 57-244 2-161 8s-113.81-17.07-106-21z"/>
        <path class="cls-5" d="M787.07 109.02l2 9h4l4 5 7 1 2-5-1-11-12-5-6 1v5zM838.07 123.02l9 7 9-1 2-8 6-12-11 1v8l-1 3-7-1-7-2-5 5h5zM982.07 98.02l2 9 3 3 5 2 7 1 2-5 11-16-23 3-7-2v5zM912.07 93.53l4 4-3 5 5.22 3.49h9.53l5.25-1.49 3 5 2-5-9-2-6-1-1-2-2-4-5-1-1-2-3-1 1 2zM737.07 127.81l.18-11.4-6.21-6.59-7.59 3.21-13.2 2.42 7.41 8.19 6.4-4.81 2.99-1.01 3.42 6.2 2.61 6.79 7 .99-3.01-3.99zM653.07 124.53l4 4-3 5 5.22 3.49h9.53l5.25-1.49 3 5 2-5-9-2-6-1-1-2-2-4-5-1-1-2-3-1 1 2z"/>
      </g>
      <g id="Ckise">
        <path id="Close" class="cls-6" d="M.07 139s48.9 17.09 122 6c37.63-5.7 37.92-14.62 73-18 43.68-4.21 54.85 8.49 121 18 21.24 3.06 78.89 3.84 144-8 11-2 46.75-13.7 72-14 12.77-.15 133.51 17 164 19 13.06.88 103-14 151-11 31.37 2 87.53-10.8 106-11 27.35-.29 65.18-40.1 94-42 17.47-1.15 83.34 24.21 107 29 37 7.48 54.19 7.6 96 26 8.84 3.89 115.39 21.57 177 11 13.08-2.24 144.51 4.07 162 0 31.78-7.39 98 8 150 28 9.8 3.77 40.8-14.35 68-6 22 6.76 31 12 38 16 13.17 7.53 75-10 75-10v275H.07z"/>
        <g class="cls-2">
          <path class="cls-7" d="M1904.56 368.72c-1.06-5.59 3.58-9.5-.85-13.08-4.24-3.45-8.58 5-13.81 3.44s-3-9.13-8.2-10.7-5.34-1.25-10.57-2.82-6.58 2.9-11.82 1.32-7.18.35-10.55-4c-2.52-3.22.9-4.09 3.5-7.25 2.9-3.51 4-.56 8.12-2.58s.84-8.56 4.92-10.59 13.4 3.13 10.19-.1c-3.88-3.91-5.71-1.1-11.18-.47s-5.31 2.06-10.78 2.69-5.06 4.24-10.53 4.87-5.82-2.36-11.29-1.73-5.45.81-10.93 1.44-9.18 6-10.86.75 3.7-4.94 8.73-7 7.26 3.51 12.28 1.48 4.65-3 9.68-5 3.49-3.5 6.9-7.72c2.94-3.65-.86-2.95-.48-7.61s9.39-5.15 8.57-9.76c-1.3-7.35-4.39-7.42-9.63-12.72-3.62-3.66-5 3.12-10.08 2.52s-4.25-7.95-9.36-8.55-5.45 2.26-10.56 1.66-4.85-2.88-10-3.48-5.59 3.4-10.7 2.79-4.54-5.52-9.65-6.12-9.57 7.15-10.63 2.11c-1.3-6.24 1.88-6.64 5.83-11.64s5.11-3.82 10.82-6.64c3.56-1.75 1.65 3.38.3 7.1s-11.93 6.1-9 8.75c4.06 3.65 7.87-4.47 13.32-4.51s5.47 1.32 10.92 1.28 5.45-1 10.9-1.06 5.5 5.17 10.95 5.13 5.44-2.63 10.9-2.67 5.43-3.89 10.89-3.93 4.77 1.84 9.83-.21c2.08-.84-1.62.49-1.61-1.76 0-5.58 3.54-5.58 3.41-11.15s-2.14-5.54-2.28-11.12 6.55-6.72 5.28-12.16c-2.33 0-9.85 3.69-14.08 3.73-3 0-6.37-5.2-10-5.17-3.12 0-6.42 6.68-9.93 6.71-3.2 0-6.59-7.24-10-7.22-3.26 0-6.59-.27-10-.26s-6.63.54-10 .54-6.67 6-10 5.94-6.73.9-10 .88-6.71-5.23-10-5.27c-3.46 0-6.87 3.71-10 3.65-3.55-.07-7 1.88-10.07 1.78-3.76-.12-6.85-6.92-9.69-7.1-3.91-.23-9.06 4-11.6 2.44-2.83-1.77-2.95-7.44-4.91-10.31-1.77-2.63.14-7.57-1.6-10.63-1.59-2.79-10.37-1-12.46-3.82-1.91-2.55-.51-7.81-3.23-10.08-2.38-2-3.49-7.37-6.77-9-2.75-1.34-7.55.77-11.1-.17-3-.79-9.72 1.8-13.34 1.35 2.86 3.48 7.76-1.22 11.48 1.32s5.48 0 9.2 2.5 2.46 4.37 6.18 6.92 9.65 3.08 8.53 7.45c-1.28 4.95-5.75 5-10.56 6.68s-5.7-.76-10.52 1-6.6-3.28-11.42-1.56-2.94 5.07-8 4.47c-4.35-.52-2.9-1.19-6.34-3.9s-10.7-1-7.17-3.55c3.78-2.76 4.26.13 8.4 2.33s5.13.32 9.27 2.52 1.62 7 5.76 9.15a36.55 36.55 0 0 1 7.63 4.79c4 3 5.76.8 9.24 4.35s1.14 5.85 4.62 9.4 6.59.51 10.07 4.07 4.67 2.39 8.16 6 3.4 4.67 2.79 9.61c-.56 4.54-3.62.1-7.78 2s-1.39 7.91-5.55 9.82-5.57-1.19-9.72.71-12.15-1.71-12.17 2.86 5.66 5.94 9.8 8 7-3.83 11.15-1.81 4 2.29 8.15 4.32 3.76 1.87 4.8 6.36c1.17 5.06-1.29 3.09-3.92 7.57s-2.2 4.73-4.83 9.2-1.49 5.16-4.12 9.63.22 8.52-4.34 11c-4 2.21-6-1.24-10.55-1.78s-4.62-.21-9.21-.75-4.21-3.64-8.8-4.18a47 47 0 0 1-8.9-1.48c-5.11-1.28-5.94 1.4-10.88-.43s-3.52-5.68-8.46-7.52-4.6-2.75-9.54-4.59-6.32 1.86-11.26 0-5.56-.17-10.51-2-3.34-5.49-8-7.88c-4.49-2.29-6 .43-10.22-2.38s-4.63-2.15-8.82-5-3.29-4.14-7.47-6.95-5.34-1.09-9.53-3.91-2.76-4.42-7.48-6.2c-4.52-1.71-4-3.74-8.78-4.31s-4.82-.43-9.62-1-5.16 2.48-10 1.91-4.49-3.21-9.3-3.77c-5.58-.66-5.79 1.1-11.37.44s-5.64-.19-11.23-.85-5.65-.15-11.23-.8-5.57-.84-11.16-1.5-10.66 3-12.76-2.23c-1.85-4.58 6.9-1.28 11.44-3.21s5.09-.65 9.64-2.57 4.21-2.71 8.76-4.63 3.73-3.88 8.28-5.8 3.52-4.29 8-6.26 6.51 2.91 10.88 1 3.19-4.61 7.56-6.55 4.74-1.13 9.11-3.07 3-5 7.37-7 11.87 3.22 11.2-1.52c-1-6.86-7.41-1.88-7.47-8.81 0-5.28 1.4 3.62 6.64 2.93s5.07-2 10.31-2.68 5-2.27 10.28-3 4.54-6 9.78-6.7 5.82 3.72 11.06 3 5-2.37 10.26-3.06 5.18-1.13 10.43-1.82 5.46 1 10.7.27 5.41.63 10.66-.06 5.44.79 10.68.1 5.61-1.4 10.22-4c4.23-2.37 6.11-1.57 9-5.45s.55-5.75 1.92-10.4c-3.41-.42-5.73-4.34-9.08-4.75s-7.21 2.5-10.54 2.1-6.51-3.5-9.83-3.89-7.64 6.12-11 5.75c-3.48-.4-6.78-1.48-10.06-1.83-3.52-.38-6.68-2.8-9.92-3.13-3.59-.35-7.12 1-10.3.77-3.7-.33-7-.72-10.11-.92-3.32-.22-6.65-1.84-10.19-2-3.36-.15-6.7-3.08-10.23-3.18-3.37-.1-6.83-.07-10.34-.13s-6.86 1.22-10.35 1.18-6.83-4.09-10.31-4.1-6.88 2.44-10.34 2.44-6.88 2.29-10.34 2.29-6.89-3.14-10.33-3.15-6.91 5.9-10.34 5.89-6.91-3.17-10.33-3.19-7 3.41-10.38 3.37-6.94-1.13-10.34-1.2-7 1.56-10.41 1.45-6.68-7.84-10-8c-3.55-.16-7.2 3.75-10.53 3.52-3-.21-6.44-.61-10.23-.94-3.16-.28-6.54-1-10.18-1.37-3.23-.32-6.81 1-10.38.63-3.27-.34-6.91 1.4-10.43 1-3.31-.35-5.83-8.79-9.33-9.17-3.32-.37-7.57 6.84-11 6.45s-6.73-.9-10.18-1.3-6.78-.57-10.22-1-6.29-4.83-9.72-5.24-7 1-10.4.57-6.54-2.76-10-3.17-6.93.35-10.33-.06-7.1 1.64-10.49 1.22-6.61-2.4-10-2.82-6.39-4.21-9.77-4.63-6.62-2.4-10-2.82-6.73-1.51-10.1-1.93-7.76 6.55-11.11 6.13-6.06-7.11-9.4-7.53-7.58 4.94-10.91 4.52-6.82-1.25-10.13-1.67c-3.5-.44-6.82-1.47-10.11-1.88-3.53-.45-6.64-3.13-9.9-3.54-3.58-.45-7-1-10.16-1.41-3.67-.46-7.25.45-10.35.07-3.89-.49-7.55 1.13-10.43.78-5.75-.69-12.71-3.66-13.57-3.69.63 7 11 8 8.48 14.5-1.84 4.71-6.42 2.8-11 4.92s-3.66 4.12-8.24 6.24-4.9 1.43-9.49 3.55-4.67 1.92-9.26 4-6-1-10.6 1.14-4.7 7.5-9.53 6c-4.34-1.34.15-6.37-1.74-10.5s-6.32-2.09-8.21-6.22.18-5.09-1.71-9.22-5.8-3.44-6.67-7.9c-.67-3.46 9.87-6.17 8.49-9.41a72 72 0 0 1-13.62-1.61c-3.61-1-8.73 1.8-11.35 0a37 37 0 0 1-7.9-7.74c-2.07-2.79-5.25-5.67-6.69-8.69-1.55-3.24-1.54-7.2-2.79-10.14-1.56-3.62 2.65-10.74.77-12.89-2.28-2.6-7.23 3-11.39 4.35-3 1-7.1-.19-10.63.71-3.13.8-7.75-4.35-11.25-3.62-3.2.66-5.19 8.24-8.68 8.85-3.24.56-7-1.14-10.48-.62-3.27.48-6.53 1.91-10 2.35-3.3.43-6.89-.86-10.35-.47-3.31.37-6.9-1.38-10.35-1s-6.44 3.54-9.88 3.84-6.53 3.26-10 3.53-7.14-4.69-10.57-4.45-6.51 4.25-9.94 4.46-7-4.41-10.46-4.22-6.48 6-9.9 6.19-7-4.47-10.42-4.32-6.53 7-9.94 7.08-6.84-.5-10.25-.39-7-6.28-10.41-6.18-6.67 5-10.08 5.12-6.9-4-10.3-4-6.72 5-10.12 5.1-6.89-4.39-10.28-4.35-6.78 4.37-10.17 4.4-6.83.84-10.21.86-6.86-3.84-10.24-3.82-6.7-1.59-10.07-1.59-6.84.85-10.21.85-6.83-2.77-10.2-2.78-6.88 6.59-10.24 6.57-6.83-5.1-10.17-5.12-6.92 4.61-10.26 4.57-6.83-4.71-10.15-4.76c-3.5 0-6.94 2.51-10.25 2.46-3.52-.06-6.86-3.34-10.15-3.4-3.55-.06-7 0-10.2-.06-3.6-.08-7-1.28-10.17-1.35-3.7-.09-7.24 5.43-10.34 5.35-3.92-.1-7.33-1-10.19-1.08-6.57-.19-4.8.36-9.83 1.2-.06.75-1.2 3.18-5.69 7.25-2.14 2-7.82.79-10.8 3.37-2.37 2.06-6.27 2.77-9.11 5.19-2.46 2.1-3 6.75-5.79 9.09-2.52 2.13-5.91 3.45-8.65 5.75-2.55 2.14-1.62 8.6-4.34 10.88s-8.6.3-11.3 2.56-3.8 6.06-6.49 8.31-8.15.89-10.83 3.12-1.25 9.16-3.92 11.39-8.55.47-11.2 2.7-2.93 7.16-5.58 9.39-4 5.92-6.62 8.15-8.53.56-11.16 2.78-3.61 6.38-6.23 8.61-7.27 2.12-9.87 4.35-.62 9.85-3.21 12.09-6.37 3.17-9 5.42-7.49 1.93-10 4.18-3.52 6.48-6.05 8.74-7.46 2.08-10 4.34-4.64 5.25-7.13 7.53-5.31 4.54-7.76 6.83-6.54 3.31-8.94 5.62c-2.59 2.47-3 7.07-5.3 9.39-2.58 2.56-6.19 3.9-8.44 6.24-2.57 2.68-3.68 6.42-5.76 8.79-2.59 2.94-4.2 6.1-5.93 8.48-2.82 3.89-5.33 7.49-5.5 9.62 3.13 4 6 1.21 9.67 4.68s2.94 4.23 6.61 7.71 5.46 1.57 9.12 5 1.66 5.6 5.32 9.07 4.05 3.07 7.71 6.55 0 7.36 3.64 10.84 6.44.54 10.11 4 5.33 1.72 9 5.19 2.47 4.73 6.14 8.2 1.34 5.92 5 9.39 7.3-.35 11 3.12 1.22 6.06 4.88 9.53 3.2 4 6.86 7.44 3.28 3.89 6.94 7.37 8-1.06 11.63 2.41.84 6.46 4.51 9.93 5 2.05 8.69 5.53 1.38 6.23 6.14 7.94 5.12 3.51 10.18 3.17 5.12.69 10.17.35 5-1.23 10-1.57 4.78-4.4 9.83-4.74 4.8-4.06 9.85-4.4 5.49 6.13 10.55 5.79 4.68-5.89 9.73-6.23 5.38 4.51 10.43 4.17 5-.77 10.07-1.11 4.81-4 9.86-4.36 5.46 5.82 10.52 5.48 4.66-6.1 9.72-6.44 5.29 3.24 10.34 2.9 5.15 1.13 10.2.79 4.61-7 9.66-7.37 5.31 3.48 10.37 3.14 5.29 3.31 10.35 3 4.53-8.05 9.59-8.39 5.34 3.61 10.41 3.31 5.19 1.69 10.24 1.35 4.91-2.49 10-2.82 5.19 1.71 10.24 1.37 5-.66 10.09-1 4.65-6.25 9.71-6.59 5.12.7 10.18.36 5.12.62 10.17.28 5.15 1 10.21.67 5.16 1.83 10.23 1.67c5.23-.18 5.19-3.81 10.41-3.81s5.23 2.19 10.46 2.19 5.22-1 10.45-1 5.23 5.44 10.45 5.44 5.23-5.26 10.45-5.26 5.23 1.74 10.45 1.74 5.23-3.67 10.46-3.67 5.23 3.62 10.46 3.62 5.22.29 10.45.29 5.23-.06 10.46-.06 6.64 3.87 11.5 1.93c4.33-1.72 4.33-3.92 7.55-7.29s-1.25-7.64 2-11 5.08-1.59 8.3-5 6.82.07 10-3.3-1.53-9.74 3-11c4.85-1.33 4.54 5.39 9.45 6.52s5.31-.63 10.22.51 5.77-2.6 10.67-1.46 4.73 1.9 9.64 3 3.65 6.55 8.55 7.68 5.34-.72 10.24.41 5.69-2.23 10.6-1.1 4.62 2.36 9.53 3.5 5.19-.1 10.1 1 4.7 2 9.61 3.13 5.26-.41 10.17.72 3.44 7.44 8.35 8.57 5.75-2.51 10.66-1.37 4 5 8.91 6.15 6.08-3.93 11-2.79 5.22-.21 10.13.93 8 9.92 11.26 6.05c3.66-4.4-4.85-6.85-6-12.45s-3.07-5.19-4.27-10.78 2.49-6.39 1.29-12-5.94-6.57-2-10.77c3.43-3.7 5.14-.87 9.85.93s3.27 5.54 8 7.35 3.78 4.23 8.48 6 5.65-.64 10.36 1.16 6.38-2.53 11.08-.72 4.18 3.18 8.89 5 4.69 1.87 9.39 3.67 4.38 2.67 9.09 4.48 3.53 4.87 8.24 6.68 7.18-4.61 11.89-2.8 2.91 11.14 8 11c5.31-.09 4-7.58 8.9-9.57s5.67-.1 10.59-2.09 5.13-1.46 10-3.44 4.26-3.6 9.18-5.59 5.45-.66 10.37-2.64 5.88.4 10.79-1.58 5.64-.22 10.55-2.21 4.88-2.06 9.8-4 3.42-5.68 8.33-7.67 6.39 1.66 11.3-.33 1.62-10.15 6.53-12.14 6.14 1 11-1 3.82-4.71 8.74-6.7 5.28.95 10.21 2.91c4.47 1.77.45 2.33 2 6.89s.46 4.93 2 9.49 6.67 2.81 8.23 7.37-1 5.45.52 10 .81 3.83 5.28 5.62c4.78 1.92 4.31 3.15 9 1.11s5.57-.08 10.29-2.12 2.42-7.38 7.14-9.42 3.84-4.09 8.56-6.13 5.34-.62 10.06-2.66 6.11 1.17 10.83-.87 5.08-1.21 9.81-3.25 4.64-2.23 9.36-4.27 3.56-4.75 8.28-6.79 5.2-5.82 9-2.36c4.26 3.89-1.65 4.63-2.32 10.36s5.47 6.45 4.79 12.18-4.48 5.29-5.16 11-7.12 8-3.84 12.75c2.8 4.06 7.21-5.18 12.12-4.78s4.67 3.27 9.58 3.67 5-.43 9.89 0 4.92.24 9.84.65 4.7 3 9.61 3.37 4.84 1.2 9.75 1.6 4.88.92 9.79 1.32 5.31 1.48 9.13-1.64c4.14-3.38.29-4.55 1.3-9.8s.44-5.36 1.45-10.61-1.19-5.68-.18-10.93 4.21-4.64 5.22-9.89 3.74-4.73 4.76-10-1.16-5.67-.14-10.93-1.33-6.78 2.49-10.53c4-4 4.82-5.05 10.35-6.22s5.93.68 11.46-.49 6.79 2.9 11.44-.32c3.51-2.44-.9-7.74 3.17-9.05 5.36-1.72 6.34 1.31 11.75 2.91s6.11-.77 11.52.82 3 9.72 8.42 11.31 6.31-1.45 11.72.14 7.59-2.33 10.4 2.57c2.7 4.69-4.9 3.57-6.41 8.76s1.81 6.17.29 11.36.12 5.66-1.4 10.86.62 5.81-.89 11-3.69 4.56-5.21 9.75-5.75 4-7.27 9.16-1.16 5.67 2.3 9.83c3.63 4.37 3.66-2.75 9.34-2.94s5.78 3 11.45 2.81 5.7.33 11.38.15 6.13 3.47 11.75 2.63c5.38-.79 5.92-.14 11.16-1.58s5.36-1 10.61-2.42 3.41-8.14 8.66-9.57 5.81.66 11.06-.78 5.79.57 11-.86 4.25-3.67 9.56-2.49 2.67 3.45 6.67 6.94 4 3.45 8 6.94 5.48 1.8 9.47 5.29 6.55.58 10.55 4.07 1.22 6.4 6.21 8.23 4.84 1.23 10.2 1.16 5.3-4.44 10.65-4.51 5.42 4.43 10.77 4.36 5.39 1.78 10.74 1.71 5.29-5.66 10.64-5.73 5.41 3.38 10.77 3.3 5.61 2.29 9.79-1.06c4-3.18 5.35-3.18 6.29-8.16s.27-5.11 1.2-10.09-3.63-5.84-2.69-10.82 5.28-4.18 6.21-9.16 2.19-4.75 3.13-9.73-.23-5.33.49-10.35c.65-4.54-2.3-4.68-3.24-9.67zm-880.87-111.59c-4.57 3.51-8-4.24-13.62-3s-4 8.61-9.61 9.86-7.34-6.45-13-5.2-3.71 6.61-8.47 3.36c-4.21-2.88-3.15-2.24-3.15-7.33s.65-5.1.65-10.2 2.23-5.1 2.23-10.2 1.15-5.1 1.15-10.2-5-3.78-6.95-8.48c-2.13-5.09.34-5.75-3.48-9.73s-2.56-5.17-6.38-9.16-4.86-3-8.67-7-8.2-1.32-10.79-6.19c-2.71-5.09 1.34-7.1.05-12.73s-6.83-7.7-2.63-11.64c4-3.73 5.28 2.6 10.3 4.73s6.31-.94 11.32 1.18 2.69 7.63 7.7 9.76 5.41 1.3 10.46 3.34c4.43 1.78 6.27-3 10.73-1.27s4.65 1.2 9.11 2.89 1.66 9.08 6.13 10.78 6.26-3.05 10.72-1.36 5.7-1.56 10.17.13 2.28 5.08 4.84 9.11 2 3.13 1.67 7.88-2.66 4.57-3 9.32 3.64 5.07 3.27 9.82-4.22 3.86-5.57 8.43c-1.58 5.36-.64 5.47-1.8 10.94-1.35 6.45 1.05 8.75-3.38 12.16zm303-81.66c4.7-2.32 7.46 2.53 11.9-.25s1.43-12.06 6.65-12.56c4.86-.48 3.39 9.48 7.89 11.39s4.63 1.61 9.12 3.52 6.33-2.37 10.82-.45 6.94.28 9 4.7-3.58 4.23-5.06 8.75-2.57 4.17-4 8.7 6 11.86 1.69 13.94c-4.74 2.31-7-5.39-12.14-6.71s-4.67-3-9.78-4.33-5.4-.34-10.6-1.26c-4.28-.76-4.65 3.28-9 2.94s-4.1-3.34-8.44-3.68-4.64.78-8.79-.51c-5-1.56-4.46-3-9.12-5.49s-13.07.18-12.58-5.07c.51-5.4 9.24 1 14.31-.95s5.23-2.32 10-4.89 3.31-5.38 8.17-7.79zM1333.3 317c-4.72 2-6.81-.2-9.74 4s3.27 8.51.34 12.72-6.54.3-11 2.77c-4.71 2.59-3.75.22-9.12.57s-5.06 5-10.42 5.34-5.41-.31-10.78 0-5.51-1.88-10.87-1.53-5.44-.81-10.81-.46-4.9 7.62-10.27 8-6.09-1.59-11-3.81c-4.31-1.95-1.14-4.88-3.74-8.83s-3.82-3.16-6.42-7.11-5.64-1.95-8.25-5.91-.09-5.61-2.7-9.56-2.76-3.85-5.37-7.81-5.77-3.52-4.68-8.13c1.15-4.91 2.29-5.48 6.49-8.26s7.5 2.18 11.7-.6 3.64-3.63 7.84-6.42 1.45-6.95 5.65-9.74 4.35-5.21 9.22-6.51c5.24-1.39 6.2 8 11.62 8.23s5.62-4.85 11-4.62 5.55-3.25 11-3 5.1 7.61 10.52 7.84 7.27 1.43 11-2.46c3-3.14-3.26-3.93-7.33-5.55s-5.56 2.12-9.63.5-3-1.56-4.36-5.74c-1.8-5.71-1.42-4.72.34-10.43s-.75-6.5 1-12.22 1.38-6.44 6.84-8.88c4.9-2.19 5.94-2.3 10.44.62s.29 9.41 4.8 12.33 7.42-1.58 11.92 1.35 3.77 4.06 8.27 7 5 2.1 9.54 5 1.89 8.68 6.91 10.59c4.38 1.66 5.87-1.81 10.52-1.26s5.11-3.28 9.77-2.73 7.51-1.65 11 1.49c3.83 3.45 2.41 6.29 3.85 11.24s-2.09 6-.65 10.94 3.37 4.39 4.81 9.35-4 6.53-2.56 11.48 8.06 3 9.5 8 1.62 5-1.68 9c-3.11 3.76-3.52 4.7-8.32 3.79s-3.45-8.06-8.25-9-4.74-1.2-9.54-2.11-4.9-.39-9.7-1.3-6 5.09-10.81 4c-4.19-.92-3.4-4.07-7.89-2.17z"/>
        </g>
      </g>
    </g>
    <g id="Vaporators">
      <path class="cls-8" d="M1292.19 36.06v5.7h-2.74v-.2l.24-.31v-.94h-.49l.52-.27v-.72l-.24-.15h-1v-1.8h-.56V35h-.27v-.56h.27v-2.31l-.29-.13v-.29h.33V30.2l-.33-.13v-.31l.72-.21v-.78l-.52-.36-.11-.47v-2.78l-.36-1.66h-.4l-.07-4.78v-9.4h.67v.63l1.91-.47.09-1.35-1.78-.13v.81h-1.9V8l-1.93.11.09 1.35 1.96.54v-.63h.67v9.4l-.07 4.78h-.4l-.36 1.66.05 2.78-.11.47-.52.36v.78l.72.21v.31l-.34.13v1.55h.34v.2l-.29.13v2.31h.27V35h-.27v2.33h-.56v1.8h-1l-.24.15V40l.52.27h-.41v.94l.24.31v.2h-2.74v-5.7h-1v24.2h1v-.35h2.92v.46c-.93.27-1.52.69-1.52 1.17 0 .82 1.76 1.48 3.93 1.48s3.94-.66 3.94-1.48c0-.47-.58-.89-1.49-1.16v-.47h2.92v.35h1V36.06zm-7 19.3l-.81.86v3h-2.91V42.54h2.74V43l.14.2-.26.2v3.27l.53.27v1.2h-1.07l.09 6.22 1.52.15zm7 3.87h-2.91v-3l-.81-.86v-.83l1.52-.15.09-6.22H1289V47l.53-.27v-3.31l-.27-.2.15-.2v-.48h2.74zM1149.53 49v7.31H1146v-.24l.31-.41v-1.2h-.64l.67-.35v-.92L1146 53h-1.22v-2.3h-.72v-3h-.34V47h.34v-3l-.37-.17v-.37h.43v-2l-.43-.17v-.4l.92-.26v-1l-.66-.46-.15-.6.06-3.57-.46-2.13h-.4l-.1-6.14V14.69h.87v.81l2.45-.61.12-1.72-2.48-.15v1h-2.44V13l-2.48.15.12 1.72 2.45.61v-.81h.87v12.09l-.1 6.14h-.51l-.46 2.13.06 3.57-.14.6-.67.46v1l.92.26v.4l-.43.17v2h.43v.37l-.37.17v3h.34v.72h-.34v3h-.72V53h-1.22l-.31.2v.92l.67.35h-.53v1.2l.31.41v.24h-3.53V49h-1.34v31.09h1.34v-.45h3.76v.59c-1.19.35-2 .9-2 1.51 0 1.05 2.26 1.9 5.05 1.9s5-.85 5-1.9c0-.61-.74-1.15-1.91-1.5v-.6h3.75v.45h1.35V49zm-9 24.79l-1 1.09v3.86h-3.75v-21.4h3.53V58l.18.25-.34.26v4.2l.69.35v1.53h-1.38l.11 8 2 .2zm9 5h-3.74v-3.86l-1-1.09v-1.1l2-.2.11-8h-1.38V63l.69-.35v-4.2l-.34-.26.13-.19v-.62h3.52zM1235.24 72.23v9.6h-4.61v-.33l.37-.5v-1.58h-.83l.86-.45v-1.24l-.39-.26H1229v-3h-.94v-3.95h-.45v-.94h.45v-3.89l-.49-.22V65h.56v-2.63l-.56-.22v-.53l1.21-.34v-1.32l-.87-.6-.18-.8.07-4.68-.6-2.79h-.67l-.03-8.09V27.21h1.13l.07 1.06 3.21-.79.15-2.27-3.24-.19v1.36h-3.21V25l-3.24.19.15 2.27 3.21.79.07-1.06h1.13V43l-.12 8.05h-.67l-.6 2.79.07 4.68-.19.8-.86.6v1.32l1.21.34v.53l-.56.22V65h.56v.49l-.49.22v3.89h.45v.94h-.45v3.93h-.94v3h-1.61l-.39.26v1.21l.86.45h-.83v1.58l.39.53v.33h-4.62v-9.6h-1.76V113h1.76v-.59h4.93v.78c-1.56.46-2.56 1.17-2.56 2 0 1.38 3 2.5 6.63 2.5s6.63-1.12 6.63-2.5c0-.79-1-1.5-2.51-2v-.8h4.92v.61h1.82V72.23zm-11.83 32.51l-1.38 1.44.06 5.07h-4.91V83.14h4.62V84l.25.34-.46.34v5.51l.91.45v2h-1.81l.15 10.47 2.57.27zm11.83 6.51h-4.9l.06-5.07-1.38-1.44v-1.39l2.57-.27.15-10.47h-1.81v-2l.9-.45v-5.53l-.45-.34.25-.34v-.81h4.61z"/>
    </g>
  </g>
</svg>