<svg xmlns="http://www.w3.org/2000/svg" width="3183.75" height="2326.33">
  <defs>
    <style>
      .star-1{fill:#fff}
    </style>
  </defs>
  <g id="Layer_2" data-name="Layer 2">
    <g id="stars">
      <circle class="star-1" cx="2723.78" cy="1387.58" r="2.5"/>
      <circle class="star-1" cx="2500.51" cy="817.9" r="2.97"/>
      <circle class="star-1" cx="2431.56" cy="924.91" r="2.65"/>
      <circle class="star-1" cx="2258.17" cy="924.13" r="2.74"/>
      <circle class="star-1" cx="2089.73" cy="1017.75" r="2.82"/>
      <circle class="star-1" cx="2361.61" cy="1449.74" r="1.31"/>
      <circle class="star-1" cx="2595.7" cy="1268.96" r="2.82"/>
      <circle class="star-1" cx="2733.72" cy="1071.86" r="1.38"/>
      <circle class="star-1" cx="2450.9" cy="562.07" r="1.9"/>
      <circle class="star-1" cx="2328.43" cy="683.37" r="2.43"/>
      <circle class="star-1" cx="2086.99" cy="727.75" r="1.09"/>
      <circle class="star-1" cx="1888.48" cy="835.36" r="2.12"/>
      <circle class="star-1" cx="1792.4" cy="880.14" r="2.17"/>
      <circle class="star-1" cx="1633.82" cy="920.9" r="2.66"/>
      <circle class="star-1" cx="2111.16" cy="1193.25" r="1.22"/>
      <circle class="star-1" cx="2197.31" cy="1078.52" r="2.84"/>
      <circle class="star-1" cx="1816.31" cy="683.04" r="2.17"/>
      <circle class="star-1" cx="1732.63" cy="775.29" r="1.51"/>
      <circle class="star-1" cx="1542.19" cy="891.99" r="1.15"/>
      <circle class="star-1" cx="1368.51" cy="924.62" r="1"/>
      <circle class="star-1" cx="1170.26" cy="1025.85" r="2.98"/>
      <circle class="star-1" cx="1010.59" cy="1101.11" r="2.53"/>
      <circle class="star-1" cx="1157.66" cy="1565.12" r="2.06"/>
      <circle class="star-1" cx="1313.78" cy="1410.67" r="2.03"/>
      <circle class="star-1" cx="1440.8" cy="1253.57" r="2.51"/>
      <circle class="star-1" cx="1652.55" cy="1072.72" r="2.29"/>
      <circle class="star-1" cx="1836.61" cy="920.46" r="2.31"/>
      <circle class="star-1" cx="1992.71" cy="807.95" r="2.03"/>
      <circle class="star-1" cx="2072.28" cy="682.42" r="2.18"/>
      <circle class="star-1" cx="2158.21" cy="614.03" r="1.26"/>
      <circle class="star-1" cx="2332.95" cy="549.6" r="2.36"/>
      <circle class="star-1" cx="2061.03" cy="87.66" r="1.22"/>
      <circle class="star-1" cx="1879.05" cy="134.44" r="1.52"/>
      <circle class="star-1" cx="1623.69" cy="276.35" r="1.64"/>
      <circle class="star-1" cx="1378.08" cy="458.33" r="2.68"/>
      <circle class="star-1" cx="1219.89" cy="472.14" r="2.1"/>
      <circle class="star-1" cx="994.15" cy="633.39" r="2.3"/>
      <circle class="star-1" cx="789.43" cy="805.02" r="2.75"/>
      <circle class="star-1" cx="657.61" cy="839.12" r="2.52"/>
      <circle class="star-1" cx="1056.28" cy="1236.02" r="1.17"/>
      <circle class="star-1" cx="1142.97" cy="1181.61" r="1.76"/>
      <circle class="star-1" cx="1249.46" cy="1126.13" r="1.4"/>
      <circle class="star-1" cx="1406.99" cy="1077.5" r="1.54"/>
      <circle class="star-1" cx="1509.27" cy="1051.2" r="1.46"/>
      <circle class="star-1" cx="1658.2" cy="899.79" r="2.31"/>
      <circle class="star-1" cx="1846.44" cy="832.02" r="2.04"/>
      <circle class="star-1" cx="1993.48" cy="751.62" r="1.99"/>
      <circle class="star-1" cx="1837.27" cy="320.47" r="3"/>
      <circle class="star-1" cx="1647.02" cy="431.6" r="1.65"/>
      <circle class="star-1" cx="1530.96" cy="557.97" r="1.34"/>
      <circle class="star-1" cx="1359.92" cy="608.23" r="2.7"/>
      <circle class="star-1" cx="1665.67" cy="970.13" r="2.29"/>
      <circle class="star-1" cx="1930.81" cy="799.48" r="1.21"/>
      <circle class="star-1" cx="2152.62" cy="576.74" r="1.69"/>
      <circle class="star-1" cx="1776.5" cy="28.71" r="1.44"/>
      <circle class="star-1" cx="1524.99" cy="174.53" r="2.92"/>
      <circle class="star-1" cx="1358.8" cy="180.59" r="1.75"/>
      <circle class="star-1" cx="1252.89" cy="235.59" r="2.81"/>
      <circle class="star-1" cx="1010.2" cy="324.95" r="2.63"/>
      <circle class="star-1" cx="779.11" cy="410.23" r="1.64"/>
      <circle class="star-1" cx="667.46" cy="406.99" r="1.2"/>
      <circle class="star-1" cx="556.72" cy="484.3" r="1.81"/>
      <circle class="star-1" cx="362.84" cy="532.29" r="1.41"/>
      <circle class="star-1" cx="661.48" cy="888.85" r="2.43"/>
      <circle class="star-1" cx="198.63" cy="586.89" r="1.74"/>
      <circle class="star-1" cx="533.11" cy="1009.95" r="2.55"/>
      <circle class="star-1" cx="644.82" cy="1002.47" r="2.44"/>
      <circle class="star-1" cx="877.55" cy="873.09" r="2.58"/>
      <circle class="star-1" cx="594.31" cy="460.16" r="1.03"/>
      <circle class="star-1" cx="926.35" cy="851.79" r="2.61"/>
      <circle class="star-1" cx="633.62" cy="576.66" r="1.89"/>
      <circle class="star-1" cx="495.96" cy="691" r="2.99"/>
      <circle class="star-1" cx="968.64" cy="1049.12" r="1.94"/>
      <circle class="star-1" cx="1167.89" cy="959.82" r="1.1"/>
      <circle class="star-1" cx="852.52" cy="572.95" r="2.94"/>
      <circle class="star-1" cx="687.4" cy="773.32" r="2.74"/>
      <circle class="star-1" cx="917.76" cy="1227.34" r="2.22"/>
      <circle class="star-1" cx="718.61" cy="796.19" r="2.91"/>
      <circle class="star-1" cx="526.59" cy="928.75" r="1.23"/>
      <circle class="star-1" cx="490.55" cy="1048.2" r="2.58"/>
      <circle class="star-1" cx="323.91" cy="1208.04" r="1.84"/>
      <circle class="star-1" cx="423.32" cy="1733.05" r="2.46"/>
      <circle class="star-1" cx="188.15" cy="1456.56" r="1.04"/>
      <circle class="star-1" cx="388.73" cy="1946.5" r="1.63"/>
      <circle class="star-1" cx="491.95" cy="1943.21" r="2.73"/>
      <circle class="star-1" cx="576.59" cy="1850.65" r="1.85"/>
      <circle class="star-1" cx="800.02" cy="1878.88" r="2.25"/>
      <circle class="star-1" cx="1061.71" cy="1793.44" r="1.02"/>
      <circle class="star-1" cx="1001.69" cy="1363" r="1.5"/>
      <circle class="star-1" cx="1204.96" cy="1819.94" r="2.11"/>
      <circle class="star-1" cx="1501.93" cy="1775.7" r="1.09"/>
      <circle class="star-1" cx="1611.06" cy="1750.88" r="2.32"/>
      <circle class="star-1" cx="1841.99" cy="1771.85" r="1.13"/>
      <circle class="star-1" cx="1555.59" cy="1324.62" r="1.39"/>
      <circle class="star-1" cx="1843.2" cy="1802.51" r="1.7"/>
      <circle class="star-1" cx="1724.35" cy="1268.29" r="2.21"/>
      <circle class="star-1" cx="1622.63" cy="1354.32" r="1.63"/>
      <circle class="star-1" cx="1891.34" cy="1773.93" r="1"/>
      <circle class="star-1" cx="2010.34" cy="1783.19" r="1.18"/>
      <circle class="star-1" cx="2163.25" cy="1686.49" r="1.3"/>
      <circle class="star-1" cx="1946.22" cy="1256.97" r="1.34"/>
      <circle class="star-1" cx="2232.72" cy="1616.92" r="2.42"/>
      <circle class="star-1" cx="2473.12" cy="1540.99" r="1.76"/>
      <circle class="star-1" cx="2193.97" cy="1132.78" r="1.3"/>
      <circle class="star-1" cx="2422.08" cy="1554.03" r="2.3"/>
      <circle class="star-1" cx="2527.02" cy="1376.02" r="2.24"/>
      <circle class="star-1" cx="2739.65" cy="1307.31" r="2.24"/>
      <circle class="star-1" cx="2350.72" cy="910.33" r="2.92"/>
      <circle class="star-1" cx="2616.93" cy="1305.09" r="1.4"/>
      <circle class="star-1" cx="2804.58" cy="1171.89" r="2.88"/>
      <circle class="star-1" cx="2572.01" cy="609.64" r="1.6"/>
      <circle class="star-1" cx="2413.57" cy="765.06" r="2.19"/>
      <circle class="star-1" cx="2781.57" cy="1003.03" r="2.56"/>
      <circle class="star-1" cx="2946.5" cy="940.54" r="1.83"/>
      <circle class="star-1" cx="2496.83" cy="544.49" r="2.04"/>
      <circle class="star-1" cx="2357.96" cy="648.36" r="1.28"/>
      <circle class="star-1" cx="2672.85" cy="953.78" r="1.88"/>
      <circle class="star-1" cx="2481.56" cy="494.38" r="1.8"/>
      <circle class="star-1" cx="2274.52" cy="648.12" r="1.13"/>
      <circle class="star-1" cx="2118.06" cy="645.7" r="1.27"/>
      <circle class="star-1" cx="1998.39" cy="700.77" r="1.57"/>
      <circle class="star-1" cx="1940.53" cy="821.87" r="2.61"/>
      <circle class="star-1" cx="1737.72" cy="914.21" r="1.17"/>
      <circle class="star-1" cx="1955.06" cy="1394.5" r="2.98"/>
      <circle class="star-1" cx="2165.49" cy="1169.86" r="2.77"/>
      <circle class="star-1" cx="2328.89" cy="1055.94" r="1.71"/>
      <circle class="star-1" cx="2490.56" cy="1003.04" r="2.01"/>
      <circle class="star-1" cx="2201.36" cy="479.86" r="2.23"/>
      <circle class="star-1" cx="2007.83" cy="580.71" r="1.8"/>
      <circle class="star-1" cx="2260.45" cy="818.18" r="2.52"/>
      <circle class="star-1" cx="2413.78" cy="725.6" r="2.54"/>
      <circle class="star-1" cx="2553.89" cy="595.44" r="2.54"/>
      <circle class="star-1" cx="2716.36" cy="532.22" r="2.31"/>
      <circle class="star-1" cx="2532.44" cy="64.84" r="1.95"/>
      <circle class="star-1" cx="2318.93" cy="106.51" r="2.19"/>
      <circle class="star-1" cx="2190.05" cy="65.33" r="1.66"/>
      <circle class="star-1" cx="2002.55" cy="146.72" r="1.29"/>
      <circle class="star-1" cx="1910.69" cy="218.02" r="1.87"/>
      <circle class="star-1" cx="1861.77" cy="656.87" r="2.9"/>
      <circle class="star-1" cx="1990.41" cy="614.95" r="2.3"/>
      <circle class="star-1" cx="1735.86" cy="161.62" r="2.19"/>
      <circle class="star-1" cx="1635.59" cy="280.69" r="1.66"/>
      <circle class="star-1" cx="1435.07" cy="301.26" r="2.49"/>
      <circle class="star-1" cx="1573.03" cy="769.23" r="2.88"/>
      <circle class="star-1" cx="1405.91" cy="357.16" r="1.96"/>
      <circle class="star-1" cx="1261.84" cy="404.61" r="2.83"/>
      <circle class="star-1" cx="1312.89" cy="924.71" r="1.89"/>
      <circle class="star-1" cx="1519.58" cy="871.23" r="2.94"/>
      <circle class="star-1" cx="1633.56" cy="877.19" r="1.53"/>
      <circle class="star-1" cx="1901.3" cy="767.03" r="2.88"/>
      <circle class="star-1" cx="2020.73" cy="735.68" r="2.98"/>
      <circle class="star-1" cx="2193.56" cy="738.47" r="1.82"/>
      <circle class="star-1" cx="2329.89" cy="685.57" r="2.17"/>
      <circle class="star-1" cx="2527.47" cy="630.61" r="1.67"/>
      <circle class="star-1" cx="2226.66" cy="238.35" r="2.52"/>
      <circle class="star-1" cx="2352.94" cy="746.5" r="1.96"/>
      <circle class="star-1" cx="2546.26" cy="666.37" r="2.84"/>
      <circle class="star-1" cx="2814.08" cy="633.89" r="2.89"/>
      <circle class="star-1" cx="2522.83" cy="183.08" r="2.14"/>
      <circle class="star-1" cx="2286.94" cy="347.14" r="1.45"/>
      <circle class="star-1" cx="2195.33" cy="460.59" r="1.2"/>
      <circle class="star-1" cx="2328.01" cy="918.24" r="1.9"/>
      <circle class="star-1" cx="2047.33" cy="490.38" r="2.22"/>
      <circle class="star-1" cx="1792.77" cy="523.5" r="2.33"/>
      <circle class="star-1" cx="1587.37" cy="615.63" r="1.51"/>
      <circle class="star-1" cx="1699.44" cy="1108.11" r="2.51"/>
      <circle class="star-1" cx="1876.23" cy="1051.32" r="2"/>
      <circle class="star-1" cx="2096.18" cy="887.41" r="2.16"/>
      <circle class="star-1" cx="2256.14" cy="674.87" r="2.2"/>
      <circle class="star-1" cx="2516.8" cy="560.72" r="1.52"/>
      <circle class="star-1" cx="2403.22" cy="78.01" r="2.21"/>
      <circle class="star-1" cx="2188.18" cy="189.51" r="1.29"/>
      <circle class="star-1" cx="1984.1" cy="316.18" r="2.14"/>
      <circle class="star-1" cx="1741.85" cy="446.26" r="2.09"/>
      <circle class="star-1" cx="1535.59" cy="648.45" r="2.73"/>
      <circle class="star-1" cx="1316.92" cy="720.63" r="2.02"/>
      <circle class="star-1" cx="1185.98" cy="813.04" r="2.28"/>
      <circle class="star-1" cx="1045.59" cy="980.51" r="1.14"/>
      <circle class="star-1" cx="1463.44" cy="1218.74" r="1.58"/>
      <circle class="star-1" cx="1648.03" cy="1104.19" r="1.15"/>
      <circle class="star-1" cx="1757.3" cy="996.01" r="2.53"/>
      <circle class="star-1" cx="1271.15" cy="631.89" r="2.44"/>
      <circle class="star-1" cx="1148.72" cy="722.43" r="1.98"/>
      <circle class="star-1" cx="959.06" cy="786.48" r="2.43"/>
      <circle class="star-1" cx="733.58" cy="959.37" r="1.53"/>
      <circle class="star-1" cx="553.08" cy="1102.13" r="2.26"/>
      <circle class="star-1" cx="803.64" cy="1544.85" r="1.8"/>
      <circle class="star-1" cx="980.43" cy="1422.26" r="1.38"/>
      <circle class="star-1" cx="1072.95" cy="1323.09" r="1.27"/>
      <circle class="star-1" cx="1179.25" cy="1176.49" r="2.12"/>
      <circle class="star-1" cx="1346.81" cy="1121.77" r="1.06"/>
      <circle class="star-1" cx="1104.93" cy="638.06" r="2.69"/>
      <circle class="star-1" cx="1035.97" cy="769.98" r="1.4"/>
      <circle class="star-1" cx="881.11" cy="896.46" r="1.17"/>
      <circle class="star-1" cx="646.16" cy="987.32" r="1.38"/>
      <circle class="star-1" cx="511.36" cy="1128.19" r="1.86"/>
      <circle class="star-1" cx="462.61" cy="1260.18" r="2.77"/>
      <circle class="star-1" cx="303.55" cy="1283.01" r="1.52"/>
      <circle class="star-1" cx="216.2" cy="1455.65" r="2.9"/>
      <circle class="star-1" cx="508.99" cy="1928.04" r="1"/>
      <circle class="star-1" cx="729.87" cy="1780.95" r="1.24"/>
      <circle class="star-1" cx="1005.74" cy="1664.97" r="2.67"/>
      <circle class="star-1" cx="1227.12" cy="1630.89" r="2.69"/>
      <circle class="star-1" cx="1462.59" cy="1473.97" r="1.93"/>
      <circle class="star-1" cx="1716.68" cy="1448.06" r="1.83"/>
      <circle class="star-1" cx="1849.95" cy="1358.46" r="2.2"/>
      <circle class="star-1" cx="1556.54" cy="998.27" r="2.44"/>
      <circle class="star-1" cx="1489.07" cy="1106.06" r="1.92"/>
      <circle class="star-1" cx="1322.49" cy="1118.88" r="1.86"/>
      <circle class="star-1" cx="1241.29" cy="1216.15" r="2.44"/>
      <circle class="star-1" cx="977.99" cy="1231.53" r="1.01"/>
      <circle class="star-1" cx="877.31" cy="1335.48" r="1.37"/>
      <circle class="star-1" cx="1130.32" cy="1679.11" r="2.85"/>
      <circle class="star-1" cx="1228.02" cy="1655.29" r="1.56"/>
      <circle class="star-1" cx="1366.45" cy="1588.9" r="1.22"/>
      <circle class="star-1" cx="1507.18" cy="1468.95" r="2.88"/>
      <circle class="star-1" cx="1118.5" cy="1094.64" r="2.92"/>
      <circle class="star-1" cx="983.28" cy="1197.19" r="2.31"/>
      <circle class="star-1" cx="747.82" cy="1260.94" r="2.67"/>
      <circle class="star-1" cx="590.03" cy="1311.3" r="2.23"/>
      <circle class="star-1" cx="502.33" cy="1384.52" r="1.33"/>
      <circle class="star-1" cx="881.37" cy="1727.95" r="2.21"/>
      <circle class="star-1" cx="1010.25" cy="1562.31" r="2.13"/>
      <circle class="star-1" cx="812.67" cy="1104.65" r="1.88"/>
      <circle class="star-1" cx="632" cy="1238.17" r="1.93"/>
      <circle class="star-1" cx="408.69" cy="1231.21" r="2.67"/>
      <circle class="star-1" cx="464.02" cy="1820.49" r="1.75"/>
      <circle class="star-1" cx="610.44" cy="1705.84" r="1.63"/>
      <circle class="star-1" cx="748.43" cy="1655.63" r="1.51"/>
      <circle class="star-1" cx="826.31" cy="1573.5" r="1.14"/>
      <circle class="star-1" cx="791.31" cy="1075.26" r="2.77"/>
      <circle class="star-1" cx="566.37" cy="1214.25" r="1.58"/>
      <circle class="star-1" cx="393.96" cy="1383.75" r="2.69"/>
      <circle class="star-1" cx="170.85" cy="1509.41" r="2.79"/>
      <circle class="star-1" cx="52.41" cy="1622.13" r="1.33"/>
      <circle class="star-1" cx="215.82" cy="2111.34" r="2.57"/>
      <circle class="star-1" cx="462.6" cy="2107.81" r="2.22"/>
      <circle class="star-1" cx="698.3" cy="2002.48" r="1.75"/>
      <circle class="star-1" cx="979.75" cy="1957.04" r="1.69"/>
      <circle class="star-1" cx="1239.68" cy="1916.41" r="1.98"/>
      <circle class="star-1" cx="1341.55" cy="1785.97" r="1.29"/>
      <circle class="star-1" cx="1447.92" cy="1776.5" r="2.16"/>
      <circle class="star-1" cx="1723.6" cy="1721.59" r="1.26"/>
      <circle class="star-1" cx="1927.94" cy="1609.58" r="1.85"/>
      <circle class="star-1" cx="1710.3" cy="1166.9" r="1.86"/>
      <circle class="star-1" cx="1597.6" cy="1172.19" r="1.94"/>
      <circle class="star-1" cx="1330.79" cy="1244.74" r="1.98"/>
      <circle class="star-1" cx="1305.05" cy="1792.98" r="1.98"/>
      <circle class="star-1" cx="1487.76" cy="1732.48" r="1.18"/>
      <circle class="star-1" cx="1736.65" cy="1547.39" r="2.04"/>
      <circle class="star-1" cx="1949.26" cy="1455.48" r="1.57"/>
      <circle class="star-1" cx="1880.71" cy="978.09" r="1.9"/>
      <circle class="star-1" cx="1629.51" cy="1081.5" r="2.6"/>
      <circle class="star-1" cx="1455.81" cy="1197.41" r="1.12"/>
      <circle class="star-1" cx="1271.32" cy="1363.78" r="2.16"/>
      <circle class="star-1" cx="1024.15" cy="1506.58" r="1.69"/>
      <circle class="star-1" cx="837.28" cy="1614.53" r="2.32"/>
      <circle class="star-1" cx="1231.84" cy="2053.95" r="1.51"/>
      <circle class="star-1" cx="1461.38" cy="2002.78" r="2.44"/>
      <circle class="star-1" cx="1750.83" cy="1944.19" r="2.44"/>
      <circle class="star-1" cx="1953.79" cy="1936.78" r="1.22"/>
      <circle class="star-1" cx="2105.08" cy="1829.34" r="1.32"/>
      <circle class="star-1" cx="2248.01" cy="1851.78" r="2.81"/>
      <circle class="star-1" cx="2469.52" cy="1738.2" r="1.41"/>
      <circle class="star-1" cx="2766.46" cy="1710.43" r="1.53"/>
      <circle class="star-1" cx="2914.23" cy="1662.52" r="1.84"/>
      <circle class="star-1" cx="2763.01" cy="1187.4" r="2.02"/>
      <circle class="star-1" cx="2629.55" cy="1182.65" r="1.37"/>
      <circle class="star-1" cx="3009.7" cy="1570.02" r="1.6"/>
      <circle class="star-1" cx="2432.22" cy="1258.25" r="2.5"/>
      <circle class="star-1" cx="2203.89" cy="1368.46" r="1.62"/>
      <circle class="star-1" cx="2430.01" cy="1904.16" r="2.1"/>
      <circle class="star-1" cx="2537.08" cy="1813.46" r="2.11"/>
      <circle class="star-1" cx="2649.13" cy="1734.62" r="2.12"/>
      <circle class="star-1" cx="2818.02" cy="1648.06" r="2.28"/>
      <circle class="star-1" cx="2678.25" cy="1129.48" r="2.09"/>
      <circle class="star-1" cx="2371.24" cy="1217.07" r="2.31"/>
      <circle class="star-1" cx="2589.89" cy="1562.53" r="2.29"/>
      <circle class="star-1" cx="2699.41" cy="1412.87" r="1.51"/>
      <circle class="star-1" cx="2810.91" cy="1286.1" r="1.55"/>
      <circle class="star-1" cx="2935.22" cy="1240.05" r="1.96"/>
      <circle class="star-1" cx="2736" cy="710.51" r="2.63"/>
      <circle class="star-1" cx="2544.61" cy="871.22" r="1.33"/>
      <circle class="star-1" cx="2267.85" cy="935.48" r="2.11"/>
      <circle class="star-1" cx="2131.55" cy="998.83" r="2.46"/>
      <circle class="star-1" cx="2040.32" cy="1068.56" r="1.1"/>
      <circle class="star-1" cx="1963.47" cy="1068.55" r="2.53"/>
      <circle class="star-1" cx="2235.08" cy="1337.98" r="2.17"/>
      <circle class="star-1" cx="2395.71" cy="1269.65" r="2.48"/>
      <circle class="star-1" cx="2466.54" cy="1124.41" r="2.26"/>
      <circle class="star-1" cx="2279.84" cy="705.63" r="1.03"/>
      <circle class="star-1" cx="2150.39" cy="765.41" r="1.2"/>
      <circle class="star-1" cx="1991.02" cy="820.25" r="2.45"/>
      <circle class="star-1" cx="1825.24" cy="962.26" r="1.62"/>
      <circle class="star-1" cx="1683.86" cy="965.85" r="1.61"/>
      <circle class="star-1" cx="1610.17" cy="1047.45" r="1.14"/>
      <circle class="star-1" cx="1553.67" cy="1145.34" r="1.41"/>
      <circle class="star-1" cx="1926.95" cy="1429.96" r="2.85"/>
      <circle class="star-1" cx="2149.7" cy="1264.66" r="1.77"/>
      <circle class="star-1" cx="2300.85" cy="1094.68" r="1.91"/>
      <circle class="star-1" cx="2420.61" cy="1052.6" r="1.74"/>
      <circle class="star-1" cx="2501.67" cy="912.17" r="1.78"/>
      <circle class="star-1" cx="2686.81" cy="805.71" r="1.56"/>
      <circle class="star-1" cx="2410.17" cy="357.14" r="2.35"/>
      <circle class="star-1" cx="2285.03" cy="426.55" r="1.3"/>
      <circle class="star-1" cx="2051.53" cy="594.99" r="1.42"/>
      <circle class="star-1" cx="1889.5" cy="648.4" r="1.46"/>
      <circle class="star-1" cx="1712.89" cy="782.97" r="1.34"/>
      <circle class="star-1" cx="1494.85" cy="885.62" r="1.62"/>
      <circle class="star-1" cx="1308.92" cy="1056.99" r="2.13"/>
      <circle class="star-1" cx="1665.92" cy="1426.88" r="2.24"/>
      <circle class="star-1" cx="1799.09" cy="1303.91" r="1.28"/>
      <circle class="star-1" cx="1956.58" cy="1182.65" r="2.1"/>
      <circle class="star-1" cx="2102.97" cy="962.34" r="1.88"/>
      <circle class="star-1" cx="2287.53" cy="869.89" r="2.69"/>
      <circle class="star-1" cx="1965.33" cy="433.75" r="1.45"/>
      <circle class="star-1" cx="1856.61" cy="487.12" r="1.85"/>
      <circle class="star-1" cx="1780.79" cy="592.76" r="2.3"/>
      <circle class="star-1" cx="1550.38" cy="668.52" r="1.6"/>
      <circle class="star-1" cx="1414.4" cy="761.28" r="2.72"/>
      <circle class="star-1" cx="1215.88" cy="889.79" r="1.71"/>
      <circle class="star-1" cx="1030.89" cy="1043.55" r="1.35"/>
      <circle class="star-1" cx="904.64" cy="1152.02" r="1.76"/>
      <circle class="star-1" cx="1358.56" cy="1341.29" r="2.08"/>
      <circle class="star-1" cx="1545.71" cy="1201.91" r="1.91"/>
      <circle class="star-1" cx="1679.44" cy="1195.17" r="1.41"/>
      <circle class="star-1" cx="1829.58" cy="1009.6" r="1.12"/>
      <circle class="star-1" cx="2017.98" cy="826.08" r="1.39"/>
      <circle class="star-1" cx="2156.29" cy="764.83" r="1.57"/>
      <circle class="star-1" cx="2235.49" cy="676.86" r="1.87"/>
      <circle class="star-1" cx="1723.27" cy="349.8" r="2.99"/>
      <circle class="star-1" cx="1621.95" cy="466.69" r="1.7"/>
      <circle class="star-1" cx="1350.34" cy="495.3" r="1.64"/>
      <circle class="star-1" cx="1194.87" cy="636.36" r="1.69"/>
      <circle class="star-1" cx="909.75" cy="711.58" r="1.92"/>
      <circle class="star-1" cx="1052.49" cy="1246.39" r="2.12"/>
      <circle class="star-1" cx="1206.5" cy="1066.55" r="1.06"/>
      <circle class="star-1" cx="1309.84" cy="971.48" r="2.3"/>
      <circle class="star-1" cx="1561.96" cy="870.2" r="1.47"/>
      <circle class="star-1" cx="1793.28" cy="720.87" r="1.88"/>
      <circle class="star-1" cx="1870.5" cy="618.57" r="1.56"/>
      <circle class="star-1" cx="1962.5" cy="522.8" r="1.35"/>
      <circle class="star-1" cx="2060.43" cy="483.16" r="2.05"/>
      <circle class="star-1" cx="2164.08" cy="426.53" r="2.27"/>
      <circle class="star-1" cx="1849.19" cy="1.77" r="1.77"/>
      <circle class="star-1" cx="1740.1" cy="100.12" r="2.19"/>
      <circle class="star-1" cx="1535.37" cy="221.36" r="1.7"/>
      <circle class="star-1" cx="1407.76" cy="253.08" r="1.11"/>
      <circle class="star-1" cx="1266.53" cy="324.53" r="2.19"/>
      <circle class="star-1" cx="1132.13" cy="404.23" r="2.33"/>
      <circle class="star-1" cx="914.59" cy="622.68" r="1.57"/>
      <circle class="star-1" cx="1244.31" cy="1046.67" r="2.83"/>
      <circle class="star-1" cx="1343.73" cy="910.89" r="1.19"/>
      <circle class="star-1" cx="1452.94" cy="839.6" r="2.53"/>
      <circle class="star-1" cx="1685.86" cy="714.08" r="1.55"/>
      <circle class="star-1" cx="1243.79" cy="339.47" r="1.5"/>
      <circle class="star-1" cx="1072.26" cy="407.35" r="1.73"/>
      <circle class="star-1" cx="851.49" cy="488.96" r="1.14"/>
      <circle class="star-1" cx="911.69" cy="1045.8" r="1.35"/>
      <circle class="star-1" cx="998.97" cy="948.44" r="2.91"/>
      <circle class="star-1" cx="1184.65" cy="802.85" r="1.55"/>
      <circle class="star-1" cx="1332.37" cy="777.39" r="1.09"/>
      <circle class="star-1" cx="1508.6" cy="596.84" r="1.53"/>
      <circle class="star-1" cx="1662.22" cy="561.94" r="1.78"/>
      <circle class="star-1" cx="1870.76" cy="377.45" r="2.25"/>
      <circle class="star-1" cx="1415.28" cy="32.95" r="1.34"/>
      <circle class="star-1" cx="1334.71" cy="114.87" r="1.58"/>
      <circle class="star-1" cx="1088.86" cy="227.16" r="1.97"/>
      <circle class="star-1" cx="1006.65" cy="330.37" r="1.33"/>
      <circle class="star-1" cx="896.38" cy="396.87" r="1.32"/>
      <circle class="star-1" cx="1192.24" cy="758.6" r="2.8"/>
      <circle class="star-1" cx="1310.13" cy="540.4" r="2.5"/>
      <circle class="star-1" cx="1043.38" cy="150.86" r="2.68"/>
      <circle class="star-1" cx="756.79" cy="277.38" r="2.47"/>
      <circle class="star-1" cx="569.23" cy="378.81" r="1.04"/>
      <circle class="star-1" cx="906.99" cy="755.96" r="2.71"/>
      <circle class="star-1" cx="1025.44" cy="610.31" r="1.74"/>
      <circle class="star-1" cx="736.33" cy="232.12" r="2.46"/>
      <circle class="star-1" cx="515.94" cy="302.63" r="1.82"/>
      <circle class="star-1" cx="2152.65" cy="2171.96" r="1.69"/>
      <circle class="star-1" cx="2386.57" cy="2061.33" r="2.07"/>
      <circle class="star-1" cx="2580.65" cy="1926.05" r="1.53"/>
      <circle class="star-1" cx="2731.05" cy="1767.82" r="2.02"/>
      <circle class="star-1" cx="2604.56" cy="1244.56" r="1.35"/>
      <circle class="star-1" cx="2765.48" cy="1713.75" r="2.35"/>
      <circle class="star-1" cx="2901.28" cy="1584.68" r="1.01"/>
      <circle class="star-1" cx="2732.85" cy="1044.56" r="2.21"/>
      <circle class="star-1" cx="2512.31" cy="1111.41" r="1.53"/>
      <circle class="star-1" cx="2340.49" cy="1179.05" r="2.09"/>
      <circle class="star-1" cx="2085.03" cy="1327.72" r="2.51"/>
      <circle class="star-1" cx="2202.37" cy="1685.99" r="2.23"/>
      <circle class="star-1" cx="2327.65" cy="1572.59" r="1.03"/>
      <circle class="star-1" cx="2060.14" cy="1151.55" r="1.65"/>
      <circle class="star-1" cx="1894.09" cy="1212.31" r="2.78"/>
      <circle class="star-1" cx="1993.51" cy="1644.97" r="1.41"/>
      <circle class="star-1" cx="2050.18" cy="1485.69" r="2.86"/>
      <circle class="star-1" cx="1730.56" cy="1119.46" r="2.55"/>
      <circle class="star-1" cx="1442.06" cy="1178.43" r="1.11"/>
      <circle class="star-1" cx="1246.67" cy="1268.07" r="2.62"/>
      <circle class="star-1" cx="1650.68" cy="1511.01" r="2.18"/>
      <circle class="star-1" cx="1381.61" cy="1085.81" r="2.72"/>
      <circle class="star-1" cx="1079.84" cy="1149.09" r="2.99"/>
      <circle class="star-1" cx="863.57" cy="1210.45" r="1.27"/>
      <circle class="star-1" cx="697.03" cy="1325.51" r="1.21"/>
      <circle class="star-1" cx="562.82" cy="1383.46" r="1.51"/>
      <circle class="star-1" cx="895.57" cy="1766.46" r="1.01"/>
      <circle class="star-1" cx="1102.49" cy="1628.91" r="1.35"/>
      <circle class="star-1" cx="694.14" cy="1265.64" r="2.3"/>
      <circle class="star-1" cx="573.02" cy="1370.79" r="1.03"/>
      <circle class="star-1" cx="840.59" cy="1574.88" r="1.73"/>
      <circle class="star-1" cx="528.44" cy="1211.06" r="1.37"/>
      <circle class="star-1" cx="888.6" cy="1560.31" r="2.34"/>
      <circle class="star-1" cx="1003.32" cy="1547.75" r="1.82"/>
      <circle class="star-1" cx="767.67" cy="1087.35" r="2.95"/>
      <circle class="star-1" cx="641.11" cy="1294.36" r="1.72"/>
      <circle class="star-1" cx="442.45" cy="1417.92" r="1.94"/>
      <circle class="star-1" cx="933.2" cy="1792.65" r="1.11"/>
      <circle class="star-1" cx="1041.42" cy="1652.21" r="2.17"/>
      <circle class="star-1" cx="1015.7" cy="1846.74" r="1.43"/>
      <circle class="star-1" cx="1143.31" cy="1684.6" r="2.95"/>
      <circle class="star-1" cx="1352.53" cy="1677.46" r="2"/>
      <circle class="star-1" cx="1182.51" cy="1206.46" r="2.15"/>
      <circle class="star-1" cx="967.47" cy="1370.03" r="1.44"/>
      <circle class="star-1" cx="1259.84" cy="1801.49" r="2.36"/>
      <circle class="star-1" cx="963.81" cy="1395.88" r="2.71"/>
      <circle class="star-1" cx="849.16" cy="1493.07" r="2.58"/>
      <circle class="star-1" cx="729.32" cy="1663.87" r="2.19"/>
      <circle class="star-1" cx="1167.35" cy="2035.5" r="1.29"/>
      <circle class="star-1" cx="1427.99" cy="1853.31" r="2.05"/>
      <circle class="star-1" cx="1568.85" cy="1879.83" r="2.15"/>
      <circle class="star-1" cx="1705" cy="1756.77" r="1.97"/>
      <circle class="star-1" cx="1658.02" cy="1242.46" r="1.94"/>
      <circle class="star-1" cx="1844.41" cy="1753.41" r="2.24"/>
      <circle class="star-1" cx="2007.29" cy="1681.82" r="2.87"/>
      <circle class="star-1" cx="2274.96" cy="1557.77" r="2.11"/>
      <circle class="star-1" cx="2165.93" cy="1096.55" r="2.68"/>
      <circle class="star-1" cx="1982.49" cy="1232.79" r="1.09"/>
      <circle class="star-1" cx="1728.69" cy="1325.7" r="1.16"/>
      <circle class="star-1" cx="1541.09" cy="1549.9" r="1.19"/>
      <circle class="star-1" cx="1935.35" cy="1961.13" r="2.48"/>
      <circle class="star-1" cx="2144.54" cy="1880.59" r="1.19"/>
      <circle class="star-1" cx="1891.91" cy="1420.98" r="2.67"/>
      <circle class="star-1" cx="2642.4" cy="1845.42" r="2.86"/>
      <circle class="star-1" cx="2833.03" cy="1744.81" r="2.33"/>
      <circle class="star-1" cx="2595.52" cy="1220.84" r="1.12"/>
      <circle class="star-1" cx="2414.02" cy="1239.6" r="1.19"/>
      <circle class="star-1" cx="2702.02" cy="1537.4" r="1.96"/>
      <circle class="star-1" cx="2838.15" cy="1472.46" r="2.52"/>
      <circle class="star-1" cx="2555.63" cy="927.39" r="2.31"/>
      <circle class="star-1" cx="2294.16" cy="1026.5" r="2.82"/>
      <circle class="star-1" cx="2087.97" cy="1104.49" r="2.3"/>
      <circle class="star-1" cx="1932.92" cy="1080.61" r="1.05"/>
      <circle class="star-1" cx="2256" cy="1389.71" r="2.57"/>
      <circle class="star-1" cx="2368.24" cy="1314.19" r="1.87"/>
      <circle class="star-1" cx="1908.11" cy="1006.39" r="1.19"/>
      <circle class="star-1" cx="1703.58" cy="1014.29" r="2.68"/>
      <circle class="star-1" cx="1458.28" cy="1199.39" r="1.12"/>
      <circle class="star-1" cx="1594.44" cy="1011.51" r="1.6"/>
      <circle class="star-1" cx="1318" cy="1147.33" r="1.97"/>
      <circle class="star-1" cx="1070.28" cy="1233.32" r="2.46"/>
      <circle class="star-1" cx="909.91" cy="1302.18" r="1.8"/>
      <circle class="star-1" cx="774.91" cy="1408.54" r="1.42"/>
      <circle class="star-1" cx="1212.74" cy="1648.76" r="1.24"/>
      <circle class="star-1" cx="1062.18" cy="1185.14" r="1.98"/>
      <circle class="star-1" cx="863.4" cy="1173.23" r="2.83"/>
      <circle class="star-1" cx="621.79" cy="1237.9" r="1.46"/>
      <circle class="star-1" cx="664.68" cy="1129.22" r="2.79"/>
      <circle class="star-1" cx="865.08" cy="1042.44" r="1.86"/>
      <circle class="star-1" cx="1021.81" cy="979.67" r="2.77"/>
      <circle class="star-1" cx="1193.2" cy="754.37" r="1.14"/>
      <circle class="star-1" cx="886.41" cy="372.89" r="1.83"/>
      <circle class="star-1" cx="988.68" cy="889.29" r="2.87"/>
      <circle class="star-1" cx="1106.22" cy="747.63" r="1.01"/>
      <circle class="star-1" cx="1202.22" cy="618.9" r="1.24"/>
      <circle class="star-1" cx="825.25" cy="200.13" r="1.94"/>
      <circle class="star-1" cx="551.86" cy="368.86" r="1.71"/>
      <circle class="star-1" cx="1295.21" cy="411.5" r="2.43"/>
      <circle class="star-1" cx="758.91" cy="310.83" r="2.67"/>
      <circle class="star-1" cx="1046.15" cy="722.07" r="2.1"/>
      <circle class="star-1" cx="665.81" cy="314.18" r="2.02"/>
      <circle class="star-1" cx="784.91" cy="708.18" r="2.96"/>
      <circle class="star-1" cx="950.9" cy="541.45" r="1.01"/>
      <circle class="star-1" cx="683.05" cy="27.21" r="1.29"/>
      <circle class="star-1" cx="478.29" cy="288.17" r="1.85"/>
      <circle class="star-1" cx="831.84" cy="1021.97" r="1.29"/>
      <circle class="star-1" cx="916.35" cy="948.33" r="2.5"/>
      <circle class="star-1" cx="562.44" cy="482.85" r="1.15"/>
      <circle class="star-1" cx="369.22" cy="619.88" r="2.58"/>
      <circle class="star-1" cx="648.11" cy="999.04" r="1.45"/>
      <circle class="star-1" cx="746.44" cy="862.99" r="2.99"/>
      <circle class="star-1" cx="855.61" cy="735.04" r="1.93"/>
      <circle class="star-1" cx="907.95" cy="618.86" r="2.28"/>
      <circle class="star-1" cx="1039.86" cy="540.79" r="2.31"/>
      <circle class="star-1" cx="714.31" cy="68.6" r="2.07"/>
      <circle class="star-1" cx="462.63" cy="187.6" r="2.33"/>
      <circle class="star-1" cx="257.8" cy="319.87" r="2.26"/>
      <circle class="star-1" cx="472.4" cy="690.76" r="1.38"/>
      <circle class="star-1" cx="574.73" cy="610.79" r="1.47"/>
      <circle class="star-1" cx="627.79" cy="510.08" r="1.37"/>
      <circle class="star-1" cx="695.5" cy="431.62" r="1.28"/>
      <circle class="star-1" cx="439.63" cy="44.29" r="1.54"/>
      <circle class="star-1" cx="305.99" cy="121.04" r="2.87"/>
      <circle class="star-1" cx="152.03" cy="351.96" r="2.98"/>
      <circle class="star-1" cx="2899.86" cy="1137.65" r="1.4"/>
      <circle class="star-1" cx="2953.1" cy="902.93" r="1.31"/>
      <circle class="star-1" cx="2834.4" cy="415.71" r="2.2"/>
      <circle class="star-1" cx="2504.55" cy="547.54" r="2.77"/>
      <circle class="star-1" cx="2926.3" cy="779.92" r="2.35"/>
      <circle class="star-1" cx="2657.9" cy="257.59" r="2.17"/>
      <circle class="star-1" cx="2399.96" cy="353.94" r="2.79"/>
      <circle class="star-1" cx="2263.54" cy="428.37" r="2.81"/>
      <circle class="star-1" cx="2632.05" cy="539.79" r="2.29"/>
      <circle class="star-1" cx="2741.17" cy="331.08" r="1.5"/>
      <circle class="star-1" cx="2388.54" cy="1924.29" r="2.17"/>
      <circle class="star-1" cx="2527.6" cy="1739.98" r="1.93"/>
      <circle class="star-1" cx="2618.57" cy="1553.11" r="1.75"/>
      <circle class="star-1" cx="2784.45" cy="1396.08" r="2.74"/>
      <circle class="star-1" cx="2629.07" cy="770.53" r="1.37"/>
      <circle class="star-1" cx="2448.13" cy="863.96" r="2.39"/>
      <circle class="star-1" cx="2817.35" cy="1125.63" r="2.95"/>
      <circle class="star-1" cx="2432.31" cy="818.95" r="2.03"/>
      <circle class="star-1" cx="2211.83" cy="934.97" r="2.52"/>
      <circle class="star-1" cx="1972.53" cy="1212.7" r="1.91"/>
      <circle class="star-1" cx="2869.46" cy="1200" r="1.68"/>
      <circle class="star-1" cx="3019.35" cy="1475.19" r="1.78"/>
      <circle class="star-1" cx="2507.32" cy="1208.37" r="1.91"/>
      <circle class="star-1" cx="2297.23" cy="1439.57" r="2.96"/>
      <circle class="star-1" cx="2661.06" cy="1850.19" r="1.35"/>
      <circle class="star-1" cx="2747.86" cy="1722.3" r="1.84"/>
      <circle class="star-1" cx="2892.22" cy="1431.21" r="1.73"/>
      <circle class="star-1" cx="2995.43" cy="1326.13" r="2.99"/>
      <circle class="star-1" cx="806.48" cy="1702.27" r="2.33"/>
      <circle class="star-1" cx="898.99" cy="1588.84" r="2.07"/>
      <circle class="star-1" cx="912.5" cy="1663.68" r="1.66"/>
      <circle class="star-1" cx="506.43" cy="1322.24" r="1.24"/>
      <circle class="star-1" cx="446.05" cy="1394.05" r="1.8"/>
      <circle class="star-1" cx="768.75" cy="1852.9" r="1.1"/>
      <circle class="star-1" cx="484.85" cy="1512.43" r="1.2"/>
      <circle class="star-1" cx="342.79" cy="1576.22" r="1.37"/>
      <circle class="star-1" cx="809.13" cy="1951.1" r="1.77"/>
      <circle class="star-1" cx="934.39" cy="1799.11" r="1.14"/>
      <circle class="star-1" cx="1050.08" cy="1719.28" r="1.38"/>
      <circle class="star-1" cx="1092.86" cy="1756.04" r="2.67"/>
      <circle class="star-1" cx="1278.62" cy="1608.52" r="2.1"/>
      <circle class="star-1" cx="1455.93" cy="1539.63" r="1.63"/>
      <circle class="star-1" cx="1059.13" cy="1300.45" r="1.77"/>
      <circle class="star-1" cx="995.36" cy="1390.35" r="1.83"/>
      <circle class="star-1" cx="1203.2" cy="1883.33" r="1.72"/>
      <circle class="star-1" cx="1340.2" cy="1880.16" r="1.5"/>
      <circle class="star-1" cx="1439.64" cy="1841.43" r="2.64"/>
      <circle class="star-1" cx="1101.45" cy="1486.36" r="2.06"/>
      <circle class="star-1" cx="1072.75" cy="1634.75" r="2.3"/>
      <circle class="star-1" cx="1378.18" cy="2073.71" r="2.43"/>
      <circle class="star-1" cx="1564.74" cy="1965.77" r="2.05"/>
      <circle class="star-1" cx="1444.95" cy="1579.79" r="2.53"/>
      <circle class="star-1" cx="1313" cy="1808.63" r="2.28"/>
      <circle class="star-1" cx="1634.79" cy="2223.76" r="2.37"/>
      <circle class="star-1" cx="1870" cy="2062.54" r="2.7"/>
      <circle class="star-1" cx="1538.72" cy="1695.83" r="1.19"/>
      <circle class="star-1" cx="1980.93" cy="2071.99" r="1.04"/>
      <circle class="star-1" cx="2223.28" cy="1901.32" r="1.24"/>
      <circle class="star-1" cx="2396.98" cy="1822.85" r="2.98"/>
      <circle class="star-1" cx="2580.73" cy="1726.24" r="2.55"/>
      <circle class="star-1" cx="2789.49" cy="1519.17" r="2.65"/>
      <circle class="star-1" cx="2419.63" cy="1196.56" r="2.91"/>
      <circle class="star-1" cx="2333.05" cy="1421.95" r="2.8"/>
      <circle class="star-1" cx="2609.28" cy="1791.76" r="1.76"/>
      <circle class="star-1" cx="2453.79" cy="1340.84" r="2.57"/>
      <circle class="star-1" cx="2306.7" cy="1583.28" r="1.38"/>
      <circle class="star-1" cx="2186.99" cy="1796.35" r="2.84"/>
      <circle class="star-1" cx="2110.2" cy="1988.34" r="2.47"/>
      <circle class="star-1" cx="1931.88" cy="2172.36" r="2.12"/>
      <circle class="star-1" cx="2514.59" cy="2324.46" r="1.86"/>
      <circle class="star-1" cx="2691.14" cy="2247.71" r="1.64"/>
      <circle class="star-1" cx="2886.15" cy="2135.85" r="2.74"/>
      <circle class="star-1" cx="2979.62" cy="1984.35" r="1.78"/>
      <circle class="star-1" cx="3128.49" cy="1912.46" r="2.25"/>
      <circle class="star-1" cx="2443.41" cy="1203.8" r="2.03"/>
      <circle class="star-1" cx="2189.38" cy="1281.18" r="1.29"/>
      <circle class="star-1" cx="2030.73" cy="1294.91" r="1.04"/>
      <circle class="star-1" cx="2174.5" cy="1717.59" r="1.38"/>
      <circle class="star-1" cx="2221.44" cy="1589.65" r="2.91"/>
      <circle class="star-1" cx="2269.72" cy="1468.55" r="1.56"/>
      <circle class="star-1" cx="2402.01" cy="1036.67" r="1.59"/>
      <circle class="star-1" cx="1984.46" cy="968.05" r="1.26"/>
      <circle class="star-1" cx="1742.86" cy="1120.69" r="1.17"/>
      <circle class="star-1" cx="1503.23" cy="1232.55" r="2.33"/>
      <circle class="star-1" cx="1274.42" cy="1385.46" r="1.09"/>
      <circle class="star-1" cx="1031.21" cy="1456.57" r="2.69"/>
      <circle class="star-1" cx="1474.64" cy="1751.54" r="1.44"/>
      <circle class="star-1" cx="1238.04" cy="1295.04" r="2.72"/>
      <circle class="star-1" cx="1040.41" cy="1304.71" r="1.02"/>
      <circle class="star-1" cx="899.83" cy="1388.26" r="2.25"/>
      <circle class="star-1" cx="762.7" cy="1445.81" r="1.69"/>
      <circle class="star-1" cx="1122" cy="1869.01" r="2.96"/>
      <circle class="star-1" cx="1236.79" cy="1706.62" r="2.63"/>
      <circle class="star-1" cx="1322.84" cy="1438.24" r="1.6"/>
      <circle class="star-1" cx="887.76" cy="1104.92" r="2.57"/>
      <circle class="star-1" cx="795.99" cy="1213.15" r="1.39"/>
      <circle class="star-1" cx="611.05" cy="1197.13" r="1.04"/>
      <circle class="star-1" cx="493.53" cy="1315.89" r="1.05"/>
      <circle class="star-1" cx="375.56" cy="1350.38" r="2.61"/>
      <circle class="star-1" cx="878.02" cy="1653.28" r="1.44"/>
      <circle class="star-1" cx="449.05" cy="1343.95" r="1.46"/>
      <circle class="star-1" cx="649.46" cy="1841.82" r="1.69"/>
      <circle class="star-1" cx="902.86" cy="1816.36" r="2.47"/>
      <circle class="star-1" cx="594.9" cy="1500.87" r="1.92"/>
      <circle class="star-1" cx="500.96" cy="1548.92" r="2.45"/>
      <circle class="star-1" cx="900.21" cy="1889.01" r="1.68"/>
      <circle class="star-1" cx="977.14" cy="1791.31" r="1.26"/>
      <circle class="star-1" cx="1243.77" cy="1688.86" r="2.51"/>
      <circle class="star-1" cx="1419.36" cy="1549.34" r="2.32"/>
      <circle class="star-1" cx="1210.29" cy="1125.64" r="1.37"/>
      <circle class="star-1" cx="1478.39" cy="1521.85" r="2.68"/>
      <circle class="star-1" cx="1749.8" cy="1501.05" r="2.22"/>
      <circle class="star-1" cx="2018.06" cy="1396.09" r="2.29"/>
      <circle class="star-1" cx="1763.88" cy="980.06" r="1.7"/>
      <circle class="star-1" cx="1642.78" cy="1204.15" r="1.8"/>
      <circle class="star-1" cx="1572.51" cy="1438.57" r="1.62"/>
      <circle class="star-1" cx="1756.64" cy="1867.48" r="2.81"/>
      <circle class="star-1" cx="2039.73" cy="1786.17" r="1.74"/>
      <circle class="star-1" cx="2295.41" cy="1674.31" r="2.63"/>
      <circle class="star-1" cx="2100.86" cy="1494.03" r="1.74"/>
      <circle class="star-1" cx="1812.71" cy="1537.88" r="1.37"/>
      <circle class="star-1" cx="1854.12" cy="1946.79" r="2.58"/>
      <circle class="star-1" cx="2027.28" cy="1792.59" r="2.51"/>
      <circle class="star-1" cx="1609.23" cy="1418.13" r="2.56"/>
      <circle class="star-1" cx="1480.9" cy="1515.93" r="2.99"/>
      <circle class="star-1" cx="1562.2" cy="1483.13" r="1.27"/>
      <circle class="star-1" cx="1271.35" cy="1461.58" r="2.34"/>
      <circle class="star-1" cx="1111.23" cy="1471.07" r="1.69"/>
      <circle class="star-1" cx="949.16" cy="1538.34" r="1.06"/>
      <circle class="star-1" cx="2240.93" cy="1629.86" r="1.39"/>
      <circle class="star-1" cx="2522.27" cy="1700.34" r="1.53"/>
      <circle class="star-1" cx="1979" cy="1700.19" r="2.85"/>
      <circle class="star-1" cx="2091.45" cy="2150.56" r="1.2"/>
      <circle class="star-1" cx="1659.39" cy="1764.76" r="1.41"/>
      <circle class="star-1" cx="1498.48" cy="1717.84" r="2.65"/>
      <circle class="star-1" cx="2473.81" cy="2106.26" r="1.92"/>
      <circle class="star-1" cx="2735.14" cy="1941.46" r="2.21"/>
      <circle class="star-1" cx="2589.26" cy="1448.65" r="2.46"/>
      <circle class="star-1" cx="2974.7" cy="1781.61" r="2.84"/>
      <circle class="star-1" cx="2557" cy="1360.96" r="1.28"/>
      <circle class="star-1" cx="2782.05" cy="1695.5" r="1.12"/>
      <circle class="star-1" cx="2364.88" cy="1327.06" r="1.94"/>
      <circle class="star-1" cx="2219.63" cy="1349.27" r="1.77"/>
      <circle class="star-1" cx="2136.2" cy="1466.02" r="1.13"/>
      <circle class="star-1" cx="1894.69" cy="1485.44" r="1.37"/>
      <circle class="star-1" cx="1675.85" cy="1548.45" r="2.23"/>
      <circle class="star-1" cx="1531.53" cy="1620.54" r="2.79"/>
      <circle class="star-1" cx="1466.65" cy="1690.45" r="2.24"/>
      <circle class="star-1" cx="1293.32" cy="1647.52" r="1.34"/>
      <circle class="star-1" cx="213.34" cy="900.91" r="1.84"/>
      <circle class="star-1" cx="36.43" cy="1034.84" r="1.98"/>
      <circle class="star-1" cx="490.54" cy="1319.61" r="1.3"/>
      <circle class="star-1" cx="605.05" cy="1242.05" r="1.82"/>
      <circle class="star-1" cx="687.53" cy="1083.45" r="1.6"/>
      <circle class="star-1" cx="271.79" cy="828.66" r="2.1"/>
      <circle class="star-1" cx="555.55" cy="1127.42" r="1.18"/>
      <circle class="star-1" cx="656.39" cy="1061.48" r="2.66"/>
      <circle class="star-1" cx="769.98" cy="948.98" r="2.79"/>
      <circle class="star-1" cx="487.28" cy="493.62" r="1.55"/>
      <circle class="star-1" cx="820.37" cy="637.89" r="1.97"/>
      <circle class="star-1" cx="606.63" cy="1382.82" r="2.01"/>
      <circle class="star-1" cx="777.3" cy="1291.87" r="1.51"/>
      <circle class="star-1" cx="764.72" cy="1371.09" r="2.48"/>
      <circle class="star-1" cx="447.03" cy="897.95" r="1.31"/>
      <circle class="star-1" cx="353.9" cy="964.19" r="1.04"/>
      <circle class="star-1" cx="617.02" cy="1261.18" r="1.73"/>
      <circle class="star-1" cx="732.88" cy="1120.56" r="1.92"/>
      <circle class="star-1" cx="816.66" cy="1007.16" r="1.18"/>
      <circle class="star-1" cx="451.62" cy="605.16" r="2.55"/>
      <circle class="star-1" cx="267.85" cy="767.79" r="2.27"/>
      <circle class="star-1" cx="553.78" cy="1117.8" r="2.8"/>
      <circle class="star-1" cx="87.98" cy="912.32" r="2.33"/>
      <circle class="star-1" cx="1.84" cy="1058.16" r="1.84"/>
      <circle class="star-1" cx="3002.67" cy="1552.37" r="1.25"/>
      <circle class="star-1" cx="3027.76" cy="1402.94" r="1.32"/>
      <circle class="star-1" cx="3085.09" cy="1146.59" r="1.34"/>
      <circle class="star-1" cx="3066.15" cy="1019.31" r="1.12"/>
      <circle class="star-1" cx="3164.83" cy="889.86" r="2.34"/>
      <circle class="star-1" cx="2790.81" cy="577.12" r="1.79"/>
      <circle class="star-1" cx="2707.97" cy="754.29" r="1.65"/>
      <circle class="star-1" cx="3181.13" cy="799.92" r="2.62"/>
      <circle class="star-1" cx="2238.58" cy="268.55" r="2.21"/>
      <circle class="star-1" cx="2105.87" cy="529.1" r="1.4"/>
      <circle class="star-1" cx="2010.04" cy="684.02" r="2.71"/>
      <circle class="star-1" cx="2555.19" cy="1007.01" r="2.47"/>
      <circle class="star-1" cx="2730.37" cy="859.84" r="1.66"/>
      <circle class="star-1" cx="2464.66" cy="528.98" r="2.57"/>
      <circle class="star-1" cx="2379.16" cy="697.4" r="1.13"/>
      <circle class="star-1" cx="2359.51" cy="880.74" r="1.65"/>
      <circle class="star-1" cx="2685.81" cy="1312.95" r="2.03"/>
      <circle class="star-1" cx="2876.54" cy="1145.1" r="2.53"/>
    </g>
  </g>
</svg>