<svg xmlns="http://www.w3.org/2000/svg" xmlns:xlink="http://www.w3.org/1999/xlink" width="977" height="599.77">
  <defs>
    <style>
      .cls-1{fill:url(#linear-gradient)}.cls-2{fill:#6c513e}.cls-3{fill:url(#linear-gradient-2)}.cls-4{fill:url(#radial-gradient)}.cls-5{fill:#8c5a3b}.cls-6{fill:url(#linear-gradient-3)}.cls-7{fill:#735236}.cls-8{fill:url(#linear-gradient-4)}.cls-9{fill:url(#linear-gradient-5)}.cls-10{fill:url(#linear-gradient-6)}.cls-11{fill:#6f5240}.cls-12,.cls-14,.cls-16,.cls-18,.cls-19,.cls-20,.cls-21,.cls-24,.cls-27{fill:#603824}.cls-12{opacity:.38}.cls-13,.cls-15,.cls-25{fill:#6f442a}.cls-13{opacity:.82}.cls-14{opacity:.42}.cls-15{opacity:.7}.cls-16{opacity:.66}.cls-17,.cls-23{fill:#5f3823}.cls-17{opacity:.68}.cls-18{opacity:.3}.cls-19,.cls-25{opacity:.44}.cls-20{opacity:.33}.cls-21{opacity:.35}.cls-22,.cls-26{fill:#382316}.cls-22{opacity:.2}.cls-23{opacity:.43}.cls-24{opacity:.25}.cls-26{opacity:.15}.cls-27{opacity:.41}.cls-28{fill:url(#linear-gradient-7)}.cls-29{fill:url(#linear-gradient-8)}.cls-30{fill:url(#linear-gradient-9)}.cls-31{fill:url(#linear-gradient-10)}.cls-32{fill:url(#linear-gradient-11)}.cls-33{fill:url(#linear-gradient-12)}.cls-34{fill:url(#linear-gradient-13)}.cls-35{fill:url(#linear-gradient-14)}.cls-36{fill:url(#linear-gradient-15)}.cls-37{fill:url(#linear-gradient-16)}.cls-38{fill:url(#linear-gradient-17)}.cls-39{fill:url(#linear-gradient-18)}.cls-40{fill:url(#linear-gradient-19)}.cls-41{fill:url(#linear-gradient-20)}.cls-42{fill:url(#linear-gradient-21)}.cls-43{fill:url(#linear-gradient-22)}.cls-44{fill:url(#linear-gradient-23)}.cls-45{fill:url(#linear-gradient-24)}.cls-46{fill:url(#linear-gradient-25)}.cls-47{fill:url(#linear-gradient-26)}.cls-48{fill:url(#linear-gradient-27)}.cls-49{fill:url(#linear-gradient-28)}
    </style>
    <linearGradient id="linear-gradient" x1="705" y1="447.08" x2="977" y2="447.08" gradientUnits="userSpaceOnUse">
      <stop offset="0" stop-color="#573e29"/>
      <stop offset=".85" stop-color="#816346" stop-opacity=".15"/>
      <stop offset="1" stop-color="#896a4b" stop-opacity="0"/>
    </linearGradient>
    <linearGradient id="linear-gradient-2" x1="705.5" y1="435.76" x2="705.5" y2="240.27" gradientUnits="userSpaceOnUse">
      <stop offset="0" stop-color="#482b19"/>
      <stop offset=".76" stop-color="#70452c"/>
      <stop offset=".99" stop-color="#916645"/>
    </linearGradient>
    <radialGradient id="radial-gradient" cx="333.85" cy="412.72" r="734.92" gradientUnits="userSpaceOnUse">
      <stop offset="0" stop-color="#3d2617"/>
      <stop offset=".1" stop-color="#4a2f1d"/>
      <stop offset=".6" stop-color="#89593c"/>
      <stop offset="1" stop-color="#c69c6d"/>
    </radialGradient>
    <linearGradient id="linear-gradient-3" x1="325.77" y1="563.89" x2="496.54" y2="269.41" gradientUnits="userSpaceOnUse">
      <stop offset="0" stop-color="#573e29"/>
      <stop offset=".31" stop-color="#5f422c"/>
      <stop offset="1" stop-color="#6c4930"/>
    </linearGradient>
    <linearGradient id="linear-gradient-4" x1="71" y1="551.58" x2="71" y2="385.58" gradientUnits="userSpaceOnUse">
      <stop offset=".1" stop-color="#573e29"/>
      <stop offset=".13" stop-color="#583f29"/>
      <stop offset=".38" stop-color="#5f422b"/>
      <stop offset="1" stop-color="#6c4930"/>
    </linearGradient>
    <linearGradient id="linear-gradient-5" x1="638.75" y1="569.58" x2="638.75" y2="378.08" gradientUnits="userSpaceOnUse">
      <stop offset="0" stop-color="#573e29"/>
      <stop offset=".33" stop-color="#583f29"/>
      <stop offset="1" stop-color="#7d5336"/>
    </linearGradient>
    <linearGradient id="linear-gradient-6" x1="746" y1="550.58" x2="746" y2="378.08" gradientUnits="userSpaceOnUse">
      <stop offset="0" stop-color="#573e29"/>
      <stop offset=".21" stop-color="#583f29"/>
      <stop offset=".34" stop-color="#5a402a"/>
      <stop offset="1" stop-color="#805639"/>
    </linearGradient>
    <linearGradient id="linear-gradient-7" x1="381.22" y1="537.72" x2="381.77" y2="548.28" gradientTransform="rotate(3.97 338.96015186 -1630.45795724)" gradientUnits="userSpaceOnUse">
      <stop offset=".44" stop-color="#1a1a1a"/>
      <stop offset=".55" stop-color="#171717"/>
      <stop offset=".94" stop-color="#141414"/>
      <stop offset=".95" stop-color="#090909"/>
      <stop offset=".96" stop-color="#020202"/>
      <stop offset="1"/>
    </linearGradient>
    <linearGradient id="linear-gradient-8" x1="377.46" y1="599.11" x2="374.83" y2="547.99" gradientTransform="translate(-156.95 5.09)" gradientUnits="userSpaceOnUse">
      <stop offset="0" stop-color="#1a1a1a"/>
      <stop offset=".59" stop-color="#181818"/>
      <stop offset=".8" stop-color="#111"/>
      <stop offset=".95" stop-color="#060606"/>
      <stop offset="1"/>
    </linearGradient>
    <linearGradient id="linear-gradient-9" x1="381.69" y1="552.3" x2="381.69" y2="541.61" gradientTransform="rotate(3.97 338.96015186 -1630.45795724)" gradientUnits="userSpaceOnUse">
      <stop offset="0" stop-color="#1a1a1a"/>
      <stop offset=".4" stop-color="#0d0d0d"/>
      <stop offset=".96"/>
    </linearGradient>
    <linearGradient id="linear-gradient-10" x1="384.59" y1="602.53" x2="384.59" y2="591.72" xlink:href="#linear-gradient-9"/>
    <linearGradient id="linear-gradient-11" x1="690.47" y1="486.46" x2="690.94" y2="495.38" gradientTransform="rotate(-88.19 632.90312101 624.39427938)" gradientUnits="userSpaceOnUse">
      <stop offset=".68" stop-color="#1a1a1a"/>
      <stop offset=".74" stop-color="#171717"/>
      <stop offset=".94" stop-color="#141414"/>
      <stop offset=".95" stop-color="#090909"/>
      <stop offset=".96" stop-color="#020202"/>
      <stop offset="1"/>
    </linearGradient>
    <linearGradient id="linear-gradient-12" x1="707.09" y1="556.28" x2="672.35" y2="556.59" gradientTransform="rotate(-95.11 615.74768813 626.79235197)" xlink:href="#linear-gradient-8"/>
    <linearGradient id="linear-gradient-13" x1="690.84" y1="499.4" x2="690.84" y2="488.74" gradientTransform="rotate(-87.16 633.54053807 626.10946319)" xlink:href="#linear-gradient-9"/>
    <linearGradient id="linear-gradient-14" x1="695" y1="567.93" x2="695" y2="557.16" gradientTransform="rotate(-90.03 631.7569439 621.32781622)" xlink:href="#linear-gradient-9"/>
    <linearGradient id="linear-gradient-15" x1="556.54" y1="469.73" x2="557.32" y2="484.59" gradientTransform="matrix(-1 .05 .05 1 974.63 -30.04)" xlink:href="#linear-gradient-7"/>
    <linearGradient id="linear-gradient-16" x1="563.2" y1="582.39" x2="560.24" y2="524.87" gradientTransform="matrix(-1 .05 .05 1 974.63 -30.04)" xlink:href="#linear-gradient-8"/>
    <linearGradient id="linear-gradient-17" x1="560.26" y1="527.82" x2="558.59" y2="505.76" gradientTransform="matrix(-1 .05 .05 1 974.63 -30.04)" xlink:href="#linear-gradient-8"/>
    <linearGradient id="linear-gradient-18" x1="558.78" y1="507.01" x2="556.97" y2="487.41" gradientTransform="matrix(-1 .05 .05 1 974.63 -30.04)" gradientUnits="userSpaceOnUse">
      <stop offset="0" stop-color="#1a1a1a"/>
      <stop offset=".39" stop-color="#151515"/>
      <stop offset=".88" stop-color="#050505"/>
      <stop offset="1"/>
    </linearGradient>
    <linearGradient id="linear-gradient-19" x1="561.08" y1="531.19" x2="561.08" y2="520.17" gradientTransform="matrix(-1 .05 .05 1 974.63 -30.04)" xlink:href="#linear-gradient-9"/>
    <linearGradient id="linear-gradient-20" x1="559.43" y1="509.4" x2="559.43" y2="497.26" gradientTransform="matrix(-1 .05 .05 1 974.63 -30.04)" gradientUnits="userSpaceOnUse">
      <stop offset="0" stop-color="#1a1a1a"/>
      <stop offset=".96"/>
    </linearGradient>
    <linearGradient id="linear-gradient-21" x1="557.19" y1="490.34" x2="557.19" y2="474.78" gradientTransform="matrix(-1 .05 .05 1 974.63 -30.04)" xlink:href="#linear-gradient-9"/>
    <linearGradient id="linear-gradient-22" x1="487.97" y1="477.75" x2="488.74" y2="492.61" gradientTransform="translate(-156.95 5.09)" xlink:href="#linear-gradient-7"/>
    <linearGradient id="linear-gradient-23" x1="494.63" y1="590.41" x2="491.67" y2="532.89" xlink:href="#linear-gradient-8"/>
    <linearGradient id="linear-gradient-24" x1="491.69" y1="535.84" x2="490.02" y2="513.78" xlink:href="#linear-gradient-8"/>
    <linearGradient id="linear-gradient-25" x1="490.21" y1="515.03" x2="488.39" y2="495.43" gradientTransform="translate(-156.95 5.09)" xlink:href="#linear-gradient-18"/>
    <linearGradient id="linear-gradient-26" x1="492.5" y1="539.21" x2="492.5" y2="528.19" gradientTransform="translate(-156.95 5.09)" xlink:href="#linear-gradient-9"/>
    <linearGradient id="linear-gradient-27" x1="490.86" y1="517.42" x2="490.86" y2="505.27" gradientTransform="translate(-156.95 5.09)" xlink:href="#linear-gradient-20"/>
    <linearGradient id="linear-gradient-28" x1="488.62" y1="498.36" x2="488.62" y2="482.8" gradientTransform="translate(-156.95 5.09)" xlink:href="#linear-gradient-9"/>
  </defs>
  <g id="Layer_2" data-name="Layer 2">
    <g id="House">
      <path id="Entrance" class="cls-1" d="M977 468.58l-47-61-225 12 44 67 228-18z"/>
      <path id="TopFront" class="cls-2" d="M804 379.58l-12-7-163-.5-132 9.5.5 4h92l101.5-6h113z"/>
      <path id="Entrance_roof" class="cls-3" d="M792 372.58s-3.22-76.94-13.5-100c-2.53-5.67-9.82-18.43-16-19-27.5-2.5-143.5 0-143.5 0l10.8 119z"/>
      <path id="Roof" class="cls-4" d="M293 .58c204-13 339 194 339 317v55l-109 9-197 8H136l-136-4v-198S64.46 15.15 293 .58z"/>
      <path id="SideRoof" class="cls-5" d="M160 393.58l-17-4h76c0-.08-2.4-155.48 141-150 157 6 149 156 149 156z"/>
      <path id="SideWall" class="cls-6" d="M160 592.58v-199h82s-3-133.1 125-141c146-9 142 132 142 132l81.5.5-3.5 184.5z"/>
      <path id="Wall03" class="cls-7" d="M142 391.58v160l18.5 41.5-.5-199.5-18-2z"/>
      <path id="Wall04" class="cls-8" d="M0 385.58l142 7v159l-142-8v-158z"/>
      <path id="Wall02" class="cls-9" d="M587 569.58l101-19 2.5-172.5-100 7-3.5 184.5z"/>
      <path id="Wall01" class="cls-10" d="M804 379.58l-113.5-1.5-2.5 172.5 116-9v-162z"/>
      <path id="TopBack" class="cls-11" d="M160 393.58l-160-8 139 3 21 5z"/>
      <g id="Patches">
        <path class="cls-12" d="M426 324.58l9 43 24 12v29l32 13-6 15 17 5 6-16 6-20-17-1 4-15-16-7-15-9v-13l-14.29-7.5-13.46-2.5 6.75-26-7-22h-26l10 22z"/>
        <path class="cls-13" d="M522 180.58l10 17 15.18 4.3 6.82 13.7 15-4 5.98-11.76-6.98-12.24-20-25h-26l-18 10 18 8z"/>
        <path class="cls-14" d="M476.73 263.16l-32.16-18.61-18.86-20.93-29.04 7.54-15.14-38.42 13.69-14.92 33.59 14 30.37 5.55 20.8 20.43 12.13 26.81 30.13 32.47-25.17 6.53-24.27-1.96 3.93-18.49z"/>
        <path class="cls-15" d="M588 258.58l4 28-4 14 10 4 11-6v-7l6-6v-12l-10-1v-5l3-12-17-8-7 3 4 8z"/>
        <path class="cls-16" d="M632 372.58h56l-10.78-25 3.3-4-6.59-6-3.3-9 4.94-7v-13l-9.88-3-11.54-5-3.3-6 9.89-7 3.3-6-8.24-3-9.89-12-2.91-3-3-8-18-2s9 26 10 53c1 25.99 0 66 0 66z"/>
        <path class="cls-17" d="M221 80.58l-14 14 7 14h12l31-4v-16l-36-8z"/>
        <path class="cls-18" d="M411 510.58l14-12h20l4 6 10 13 3 8v13l-11 7h-23l8-10-13-6h-19l25-13-18-6z"/>
        <path class="cls-19" d="M690 410.58l14-6 5 6 4 6 2 12-2 15-2 18-3 3 3 6 2 13-2 10-3 8-5 9-4 8 8 3 1 6 1 5v4l2 5v4l-5.5 3.65-17.5 1.35 2-140z"/>
        <path class="cls-20" d="M590 408.58l6-2 4-3v-6l3-2 4-2v-9l-17 1v23z"/>
        <path class="cls-21" d="M641 454.58l-10 18 10 2v10l-7 8-3 11 8 5h22l11-10v-8l-9-3-5-2-6-4-4-6 1-5-7-3 4-5 2-8-2-12-5 12z"/>
        <path class="cls-22" d="M208 495.74l-10 13.7 10 7.37-2 12.64v7.37l8 7.38 10 6.32-3 8.42h10l11 9.48 13 3.16h7l3-16.85h-11l-13-1.05-5-8.43-8-4.21-3-7.38 1-6.32-8-4.21-3-6.32 2-7.37-7-6.32 5-10.54-7 3.16z"/>
        <path class="cls-14" d="M87 194.58v12l-4 13-12 12 9 5h33l17-15 13-29-17-26-27-4-23 14 11 18z"/>
        <path class="cls-23" d="M759 496.58l-14 14 7 14h12l31-4v-16l-36-8z"/>
        <path class="cls-24" d="M281 423.58v12l-4 13-12 12 9 5h33l17-15 13-29-17-26-27-4-23 14 11 18z"/>
        <path class="cls-25" d="M379.56 66.47l25.82 11.56 9.7 10.86 8.72-6.33.8-12.5-5.92-3.74-1.87-8.27-10.15-6.41-6.18 7.92-4.23-2.66-8.55-8.94-15.84 10.1-1.2 7.52 8.9.89z"/>
        <path class="cls-22" d="M61.58 468.12l-15.92 5.84-4.33-11.65-12.71-1.56-7.08-2.03-4.89-9.72-3.32-11.35-8.93.56 2.76-9.61-6.09-13.19.54-13.36 1.93-6.73 17.03 1.75-3.03 10.58-2.57 12.79 6.73 7.12 1.84 8.86 6.27 4.91 6.35.78 1.84 8.85 5.25 4.62 7.64.11 4.15 8.47 11.5-1.9-4.96 5.86z"/>
        <path class="cls-26" d="M90 498.58l14-12h20l18-3v22l-7 12-5 10v6h-23l-7-8 2-8 5-5 1-8-18-6z"/>
        <path class="cls-27" d="M733.63 264.83l15.57 23.62 2.35 14.37 10.75-.65 7.39-10.12-2.98-6.33 2.86-7.99-1.57-11.15h-6l2-5-1-8-31-1-5.4 6.72 7.03 5.53z"/>
      </g>
      <g id="Boxes">
        <path class="cls-28" d="M253.24 543.27c-.08 2.87-11.15 1.7-23 1.78s-21.93 2.56-21.78-.31c.16-3 4.11-5.16 22-6.27 11.84-.74 22.88 1.41 22.78 4.8z"/>
        <path class="cls-29" d="M209.68 545l-.59 51.74 42.27-1.44v-51.02l-41.68.72z"/>
        <path class="cls-30" d="M250.82 546.37s-4.13 2.29-21.31 3c-18 .74-21.39-3-21.42-4.21 0-1.23 1.69-2.77 1.69-2.77s1.46 3.06 20.11 2.49c17.83-.54 21.2-4.12 21.2-4.12 1.47 1.06 2.58 1.62 2.48 3.48-.05.92-2.75 2.13-2.75 2.13z"/>
        <path class="cls-31" d="M250.23 596.68s-4.13 2.29-21.31 3c-18 .74-21.38-3-21.42-4.21 0-1.23 1.69-2.77 1.69-2.77s1.46 3.06 20.12 2.49c17.82-.55 22.05-4.19 22.05-4.19 1.46 1.06 1.73 1.69 1.62 3.55-.05.92-2.75 2.13-2.75 2.13z"/>
        <path class="cls-32" d="M502.25 544.44c2.9-.79 2.12 8.89 2.56 18.41s3.34 17.52.33 17.51c-3.17 0-5.14-1.78-5.68-17-.46-11.78-1.46-17.78 2.79-18.92z"/>
        <path class="cls-33" d="M505.6 579l70.35-4.02-3.87-33.8-67.08 4.4.6 33.42z"/>
        <path class="cls-34" d="M505.85 546.23s2.46 3.27 3.47 17.07c1.06 14.48-2.78 17.25-4.07 17.3a5.7 5.7 0 0 1-2.92-1.3s3.18-1.23 2.29-16.22c-.86-14.32-4.65-17-4.65-17 1.08-1.2 1.65-2.11 3.6-2.06.97.06 2.28 2.21 2.28 2.21z"/>
        <path class="cls-35" d="M573.57 542s2.63 3.15 4.32 16.88c1.78 14.41-1.91 17.37-3.19 17.48a5.67 5.67 0 0 1-3-1.15s3.12-1.39 1.47-16.32c-1.56-14.25-5.6-17.38-5.6-17.38 1-1.25 1.66-1.51 3.61-1.56.98-.04 2.39 2.05 2.39 2.05z"/>
      </g>
      <g id="Ventilation">
        <path class="cls-36" d="M405.24 478.39c.07 4 18.95 2.7 39.14 3.15s37.29 4.2 37.1.2c-.2-4.21-6.89-7.29-37.33-9.36-20.15-1.38-38.99 1.29-38.91 6.01z"/>
        <path class="cls-37" d="M461.73 523.2s-3.8 25.57-3.76 30.21c.09 9.68 2.46 24.07 2.46 24.07s-1.77 3.34-14.76 3.37c-9.11 0-13.77-2.52-13.77-2.52s.72-14-.57-22.86c-.85-5.78-8-34.38-8-34.38z"/>
        <path class="cls-38" d="M461.73 523.2l7.58-22.26-52.04-2.47 6.19 22.91 21.96 4.93 16.31-3.11z"/>
        <path class="cls-39" d="M469.31 500.94l8.26-17.21-67.13-3.19 6.83 17.93 26.42 7.14 25.62-4.67z"/>
        <path class="cls-40" d="M421.35 525.62s4.12 2.59 21.55 3.48c18.3.93 22-2.51 21.88-4.6.07-1.37-2.69-2.31-2.69-2.31s-.51 2.62-19.45 1.87c-18.09-.71-19.65-4.37-19.65-4.37-1.38-.07-5.16 1-4.19 3.77a4.05 4.05 0 0 0 2.55 2.16z"/>
        <path class="cls-41" d="M414.71 503s5.62 2.67 29.19 3.86c24.74 1.25 29.61-2.14 29.48-4.22.07-1.38-3.68-2.36-3.68-2.36s-.65 2.61-26.24 1.54c-24.46-1-26.64-4.73-26.64-4.73-1.86-.09-6.95.91-5.58 3.71.76 1.6 3.47 2.2 3.47 2.2z"/>
        <path class="cls-42" d="M409.3 482.78s7 3.31 36.22 4.78c30.69 1.55 36.49-3.52 36.58-5.23.08-1.71-2.81-3.91-2.81-3.91s-2.56 4.22-34.32 2.89C414.62 480 409 475 409 475c-2.53 1.43-4.44 2.18-4.3 4.77.03 1.23 4.6 3.01 4.6 3.01z"/>
        <path class="cls-43" d="M379 480.81c.22 4-18.71 4-38.81 5.94s-36.9 6.86-37 2.85c-.1-4.21 6.35-7.77 36.56-12 19.97-2.82 38.97-1.51 39.25 3.21z"/>
        <path class="cls-44" d="M325.84 529.54s5.62 25.23 5.91 29.86c.6 9.66-.73 24.19-.73 24.19s2 3.21 15 2.31c9.09-.63 13.56-3.51 13.56-3.51s-1.73-13.92-1.07-22.84c.43-5.82 5.49-34.86 5.49-34.86z"/>
        <path class="cls-45" d="M325.84 529.54l-9.16-21.66 51.73-6.19-4.53 23.29-21.55 6.49-16.49-1.93z"/>
        <path class="cls-46" d="M316.68 507.88l-9.47-16.57 66.73-7.99-5.53 18.37-25.84 9.02-25.89-2.83z"/>
        <path class="cls-47" d="M366.29 529.06s-3.93 2.88-21.26 5c-18.18 2.23-22.13-.93-22.14-3-.17-1.37 2.52-2.5 2.52-2.5s.7 2.58 19.53.48c18-2 19.29-5.78 19.29-5.78 1.37-.17 5.21.63 4.44 3.47a4 4 0 0 1-2.38 2.33z"/>
        <path class="cls-48" d="M371.29 506s-5.42 3.06-28.84 5.94c-24.58 3-29.69 0-29.71-2.1-.16-1.37 3.5-2.62 3.5-2.62s.83 2.56 26.29-.35c24.32-2.78 26.23-6.61 26.23-6.61 1.85-.23 7 .41 5.83 3.29-.67 1.69-3.3 2.45-3.3 2.45z"/>
        <path class="cls-49" d="M375.24 485.47s-6.72 3.8-35.78 7.37c-30.51 3.74-36.66-.91-36.87-2.61-.2-1.7 2.53-4.1 2.53-4.1s2.85 4 34.44.42c30.17-3.44 35.46-8.91 35.46-8.91 2.62 1.24 4.58 1.86 4.63 4.45.02 1.3-4.41 3.38-4.41 3.38z"/>
      </g>
    </g>
  </g>
</svg>