<svg xmlns="http://www.w3.org/2000/svg" xmlns:xlink="http://www.w3.org/1999/xlink" width="129.72" height="186.54">
  <defs>
    <style>
      .cls-1{opacity:.1;fill:url(#linear-gradient)}.cls-2{fill:url(#linear-gradient-2)}.cls-3{fill:url(#linear-gradient-3)}.cls-4{fill:#7e4559;opacity:.27}.cls-5{fill:url(#linear-gradient-4)}.cls-6{opacity:.56;fill:url(#linear-gradient-5)}.cls-11,.cls-12,.cls-7,.cls-8,.cls-9{opacity:.55}.cls-7{fill:url(#linear-gradient-6)}.cls-8{fill:url(#linear-gradient-7)}.cls-9{fill:url(#linear-gradient-8)}.cls-10{opacity:.43;fill:url(#linear-gradient-9)}.cls-11{fill:url(#linear-gradient-10)}.cls-12{fill:url(#linear-gradient-11)}.cls-13{fill:url(#linear-gradient-12)}.cls-14{fill:url(#linear-gradient-13)}
    </style>
    <linearGradient id="linear-gradient" y1="151.26" x2="101.73" y2="151.26" gradientUnits="userSpaceOnUse">
      <stop offset="0" stop-opacity="0"/>
      <stop offset="1"/>
    </linearGradient>
    <linearGradient id="linear-gradient-2" x1="94.65" y1="129.67" x2="94.65" y2="63.79" gradientUnits="userSpaceOnUse">
      <stop offset=".15" stop-color="#955c49"/>
      <stop offset="1" stop-color="#936360"/>
    </linearGradient>
    <linearGradient id="linear-gradient-3" x1="104.99" y1="71.76" x2="104.99" y2="125.74" gradientUnits="userSpaceOnUse">
      <stop offset="0" stop-color="#9b6a63"/>
      <stop offset=".3" stop-color="#a37066"/>
      <stop offset=".75" stop-color="#b8816e"/>
      <stop offset="1" stop-color="#c78d73"/>
    </linearGradient>
    <linearGradient id="linear-gradient-4" x1="112.48" y1="12.74" x2="96.37" y2="70.31" gradientUnits="userSpaceOnUse">
      <stop offset="0" stop-color="#f6b284"/>
      <stop offset=".08" stop-color="#e9a77f"/>
      <stop offset=".36" stop-color="#c28871"/>
      <stop offset=".61" stop-color="#a57266"/>
      <stop offset=".84" stop-color="#946460"/>
      <stop offset="1" stop-color="#8e5f5e"/>
    </linearGradient>
    <linearGradient id="linear-gradient-5" x1="92.1" y1="31.19" x2="92.1" y2="49.02" gradientUnits="userSpaceOnUse">
      <stop offset="0" stop-color="#864734"/>
      <stop offset="1" stop-color="#501d1a"/>
    </linearGradient>
    <linearGradient id="linear-gradient-6" x1="96.58" y1="32.07" x2="96.58" y2="46.3" xlink:href="#linear-gradient-5"/>
    <linearGradient id="linear-gradient-7" x1="101.8" y1="33.23" x2="101.8" y2="47.32" xlink:href="#linear-gradient-5"/>
    <linearGradient id="linear-gradient-8" x1="124.06" y1="45.9" x2="123.14" y2="49.21" xlink:href="#linear-gradient-5"/>
    <linearGradient id="linear-gradient-9" x1="87.9" y1="51.72" x2="80.7" y2="49.01" gradientUnits="userSpaceOnUse">
      <stop offset="0" stop-color="#864734"/>
      <stop offset=".09" stop-color="#7e4130"/>
      <stop offset=".44" stop-color="#652d24"/>
      <stop offset=".75" stop-color="#55211d"/>
      <stop offset="1" stop-color="#501d1a"/>
    </linearGradient>
    <linearGradient id="linear-gradient-10" x1="125.91" y1="35.09" x2="122.66" y2="46.71" xlink:href="#linear-gradient-5"/>
    <linearGradient id="linear-gradient-11" x1="122.03" y1="47.9" x2="121.1" y2="51.21" xlink:href="#linear-gradient-5"/>
    <linearGradient id="linear-gradient-12" x1="106.56" y1="18.41" x2="106.56" y2="7.44" gradientUnits="userSpaceOnUse">
      <stop offset=".21" stop-color="#7b3d05"/>
      <stop offset=".41" stop-color="#7a3a05"/>
      <stop offset=".91" stop-color="#691604"/>
    </linearGradient>
    <linearGradient id="linear-gradient-13" x1="106.56" y1="12.17" x2="106.56" y2="-.34" gradientUnits="userSpaceOnUse">
      <stop offset="0" stop-color="#7b3d05"/>
      <stop offset="1" stop-color="#691604"/>
    </linearGradient>
  </defs>
  <g id="Layer_2" data-name="Layer 2">
    <g id="Luke">
      <path id="Shadow" class="cls-1" d="M51.75 180.13c1.7-2.27.8-8.58 1.92-11.19a11.5 11.5 0 0 1 3.84-3.82c3.52-2 18.19-5.14 15-7.67a21 21 0 0 1-4.18-4.4c1.53-1.18 4.58-3.51 5.9-4.34 4.15-2.61 13.23-7 16.39-10.75 1.15-1.37 2.15-5 3.22-6.37 1.4-1.85 7.66-7.36 7.66-7.36s.89-9.73-1-8c-16.31 8.88-37.5 11.49-48.3 17.29-.68-.65-16.82 8.23-21.82 10.23-3.87 1.54-14 3-15.13 4.36-2.19 2.65-5.35 9.19-5.66 12.61a14.07 14.07 0 0 0 2.07 7.28c.31.4 1.22 1.43 1.58 1.79a10.24 10.24 0 0 1 .82.95H14l-.95-.51-1.45.55-1.27-.58-.53-.63-.44.62-.36-.75-3.13 2.31-1.68.35-1-.71-1.4 2.92s-1 1.78-1.35 2.35c-1.74 2.75 2.06 8.54 4.36 9.07a8.62 8.62 0 0 0 2.06-.17l2.79 1 1.42-2.39.51-.75.59-.51 1.5-1.06.61-1.08.08-.85 1.25-.31.21-.64.38.11.67-1.4.62-.76a10.86 10.86 0 0 1 .43 1.35c.16.67.44 1.81.68 2.46.55 1.47 2.94 4.23 4.5 4.37 4.93.45 14.42.32 19-.85 2.57-.66 8.08-2.03 9.65-4.12z"/>
      <g id="Luke-2" data-name="Luke">
        <g id="Legs">
          <path class="cls-2" d="M88.64 66.8c-.51 12.1 8 32.74 8 52 0 1 4.07 0 4.07 0l-.47-52.65-11.57.63"/>
          <path class="cls-3" d="M98 74.31s2.2 16 1.69 21.28c-.38 4.06-.34 7.42-.4 10.81s-1.28 6.33-1.8 8.87-2.48 8.09-.7 9.82c1.18 1.15 5 .55 6.6 0 2.73-1 7.88-3.13 10.33-5.32.37-.34.27-1.85-.21-2-2.16-.75-7.32 1.45-9-.05-.59-.52.2-3.14.2-3.14s1.29-6.88 2.25-9c.73-1.62 3.39-4.22 4-5.88 1.78-4.57 1.27-14.65 1.57-19.54.13-2.12 1.16-8.4 1.16-8.4z"/>
          <path class="cls-4" d="M103.53 72.93l6.27-.2c-4.81 5.49-.93 14.48-2.48 19.86-.44 1.53-2.12-1-2.12-1 .58-4.91-2.54-15.02-1.67-18.66z"/>
        </g>
        <g id="Torso">
          <path d="M75.51 64.4l5.1-1.27s.47 2.38-.47 2.82a3.86 3.86 0 0 1-2.88-.08 10 10 0 0 1-1.75-1.47z"/>
          <path class="cls-5" d="M128.32 34.94c-1.19-4.61-5.63-13-8.39-17.11-.88-1.3-4.44-2.07-6-1.85-.67.1-1.81.4-2.47.58a22.69 22.69 0 0 1-9.67 0c-.48-.14-1.83-.45-2.33-.53a14.07 14.07 0 0 0-7.38 1.68c-2.86 1.91-6.54 8.1-8.36 11-2.19 3.53-4.59 11.19-5.91 15.13-1.61 4.81-3.81 15.71-2.59 20.37.53 2.06 5.82-.69 5.82-.69l2.2.44s1.28 3.25 2.3 3.52c3.45.91 3.1-.68 9.68 6 5.27 5.37 11.37-4.43 24.17.95 3.74 1.57-.54-12.81-.47-16.86a11.71 11.71 0 0 1 1.51-5.21c1.75-2.23 7.72-4.46 8.9-7 1.08-2.36-.33-7.89-1.01-10.42z"/>
          <path class="cls-6" d="M88.34 48.14l.3.88a52 52 0 0 0 1.18-7.65 27.39 27.39 0 0 1 1.35-5.24c.27-.68 1.66-1.83 2-2.46.23-.41 3.18-2.09 2.85-2.41s-1.88.88-2.33 1.18c-1.17.78-3.47 2.88-3.67 4.27-.38 2.75-2.56 8.88-1.68 11.43z"/>
          <path id="Belt" d="M84.59 66.59L83.24 64l15.62-3.44V52.8l-6.74-.09v1.47l-6.74-.22 1.43-6.48 5.3.15-.11 1.21 13.7.07 3.93 3.66 10.85-.18-1.07 2.54-13.67-.26v14.81s-3.56 3.12-5.18 3.25c-1.37.11-4.46-1.88-4.46-1.88v-5.08z"/>
          <path class="cls-7" d="M101 32.07c-2.88-.12-8.21 11.24-8.21 11.24s-.84 3.36-.69 3c1.8-4.66 5.32-9.47 7.33-12.38.18-.27 1.88-1.85 1.57-1.86z"/>
          <path class="cls-8" d="M106.72 33.24c-2.88-.12-9.45 11.49-9.45 11.49a18.4 18.4 0 0 0-.39 2.55 48.92 48.92 0 0 1 7.7-11.74c.2-.2 2.42-2.29 2.14-2.3z"/>
          <path class="cls-9" d="M124.42 49.47s.69-.47 1-.7c.68-.58-3.87-4.27-3.17-3.53a9.16 9.16 0 0 1 2.19 4.18"/>
          <path class="cls-10" d="M81 63.52l2.2.44s6-26.53 4.91-26.53c-1.88 0-6.77 14.73-7.4 19.72a41.55 41.55 0 0 0 .29 6.37z"/>
          <path class="cls-11" d="M128.65 46.33c.61-.65-8.56-14.28-8-13.44 1.46 2.08 6.5 14.73 6.5 14.73a8.9 8.9 0 0 0 1.5-1.29z"/>
          <path class="cls-12" d="M121.58 51.24s.86-.57 1.15-.7c.8-.39-2.43-4-2-3.08a8.52 8.52 0 0 1 .85 3.78z"/>
        </g>
        <g id="Head">
          <path class="cls-13" d="M100.75 13.77l1.12.84.21 1.54.9.59 1.16 1.32 2.06.35 2.09-.11 1.09-.71.6-.53.44-1.13.92-1.27-.28-.28.46-.49-.33-1.24.71-.48.66-1.05.2-1.83.41-1.85h-2.2l-6.95.26-3.41 4.53-.66 1.38.8.16z"/>
          <path class="cls-14" d="M99.45 7.44l-1.08-.51 1.89-2.63s1.09-1.72 1.42-2.31c1.57-2.84 8.47-2.29 10-.53a8.6 8.6 0 0 1 .84 1.9l2.19 2-1.41 2.39-1 1.94-7.3 3.24h-5.58l.58-3.86z"/>
        </g>
      </g>
    </g>
  </g>
</svg>