<svg xmlns="http://www.w3.org/2000/svg" viewBox="0 0 1920 200">
  <defs>
    <style>
      .cls-1{fill:#7e694d}
    </style>
  </defs>
  <g id="Layer_2" data-name="Layer 2">
    <g id="Mountains">
      <path id="Mountains-2" data-name="Mountains" class="cls-1" d="M0 2.17s27 9.43 36 11.55c14.72 3.47 44.85 7.52 60 8 17.78.55 53.18-5 71-5 16.54 0 49.47 3.86 66 5 20.23 1.39 60.68 5.28 81 5 22.32-.31 66.67-6.59 89-8 27.95-1.76 83.94-4.1 111.94-4 23.51.08 70.45 4.5 93.95 4 29.34-.63 87.6-10 116.94-10 37.62 0 112.3 13 149.92 13 34.12 0 101.83-11.15 135.93-12 32.75-.82 98.21 3.58 130.94 5 41.23 1.79 123.63 7.94 164.91 8 49.28.07 147.72-5.89 196.9-9 37.27-2.35 111.6-10.49 148.92-12 51.43-2.07 154.48-2.53 205.89 0 15.3.75 61 6 61 6v192.9L0 181.63z"/>
    </g>
  </g>
</svg>