<svg xmlns="http://www.w3.org/2000/svg" viewBox="0 0 60 43">
  <defs>
    <style>
      .tsk-1{fill:#111}
    </style>
  </defs>
  <g id="Layer_2" data-name="Layer 2">
    <g id="TuskenRaider">
      <path class="tsk-1" d="M6.9 32.21v.68c0 .21-.1.44-.15.66a.8.8 0 0 0 0 .27c.09.52.06.59-.48.66a8.09 8.09 0 0 1-1.1 0c-.48 0-.6-.17-.46-.62.09-.3.23-.59.32-.9a7.66 7.66 0 0 0 .33-2.48 10.59 10.59 0 0 1 .23-1.92v-.63a14.34 14.34 0 0 1 0-1.47c.17-1.35.38-2.7.6-4a30.69 30.69 0 0 1 1.06-4.91 10.61 10.61 0 0 0 .51-3.16 1.61 1.61 0 0 0-.03-.39c-.38-1.19-.73-2.33-1.13-3.48a.77.77 0 0 0-.39-.52 10.36 10.36 0 0 1-1.08-.75C4.34 8.66 3.57 8 2.8 7.38a3.26 3.26 0 0 1-.86-.92 1.87 1.87 0 0 1-.17-1.22 26.92 26.92 0 0 1 1-2.86c.07-.18.32-.32.5-.45a.73.73 0 0 0 .31-.82.35.35 0 0 0-.26-.11C2.77 1 2.22.9 1.67.88c-.1 0-.19.11-.29.17.07.07.12.18.2.22.58.3.68.93.17 1.28a.52.52 0 0 0-.22.62c0 .19.09.39.13.58h-.11a5.21 5.21 0 0 0-.33-.67.77.77 0 0 0-.42-.31.88.88 0 0 1-.8-.59.67.67 0 0 1 .29-.79l.09-.21C.49 1 .55.72.64.5A.71.71 0 0 1 1.4 0a14.06 14.06 0 0 1 1.72.15A5.19 5.19 0 0 0 4.44 0h1c.06 0 .15 0 .16.07.08.39.39.28.64.3l5.27.42h.48c.16 0 .44 0 .48-.34l.36.24V.66c.36 0 .8 0 1.07.14a1.82 1.82 0 0 0 1.1.25c.23 0 .33.18.49.2.62.08 1.24.14 1.87.17a6.74 6.74 0 0 1 1.86.05c1.26.45 2.59.38 3.85.71.05 0 .09 0 .13.14h-.82a15.61 15.61 0 0 0-2.46-.06A7.21 7.21 0 0 1 17.16 2a13.5 13.5 0 0 0-2-.19c.11.23.14.44.27.54a10 10 0 0 0 1.19.81 5.67 5.67 0 0 1 1.51 1.5.83.83 0 0 1 .07.13c.12.2.36.43.32.61a3.31 3.31 0 0 1-.45 1 4.5 4.5 0 0 1-1.85 1.46c-.5.3-1 .61-1.52.88a1.09 1.09 0 0 0-.56.8c-.16.8-.28 1.61-.43 2.41s-.3 1.43-.45 2.16a4.94 4.94 0 0 0 .49 1.37l.33.9a21 21 0 0 1 1.32 4.14c.19 1.23.72 2.37 1 3.58a9 9 0 0 1 .19 1.46c.07 1.67.11 3.35.16 5 0 .51 0 .53-.56.67l-.38.12c.41.62.44 1.39 1.13 1.86.25.17.28.63.43 1-.66.06-1.19.12-1.73.15a.5.5 0 0 1-.58-.39c0-.1-.19-.21-.31-.25-.68-.22-.81-.46-.68-1.16a4.57 4.57 0 0 0 0-.84l-3.73.45a10.93 10.93 0 0 1-1.49.22 10.43 10.43 0 0 1-1.56-.21zm9-27l-.41-.46a15.68 15.68 0 0 1-1.13-1.45A2.32 2.32 0 0 0 13 2.23a.5.5 0 0 1-.27-.17c-.24-.41-.64-.42-1.05-.45-1-.06-2-.14-3-.21s-1.88-.16-2.84-.22a.93.93 0 0 0-.41.15 4.66 4.66 0 0 1-.6.35.51.51 0 0 0-.41.58 1.22 1.22 0 0 1 0 .38c-.18.62-.37 1.22-.55 1.83a1.28 1.28 0 0 0 .3 1 4.92 4.92 0 0 0 2.67.77 4 4 0 0 1 1.37.33c.29.12.49.18.67 0a9.05 9.05 0 0 1-.38-3.89 1.13 1.13 0 0 1 .89-.84c.49 0 1-.18 1.45.2h.2c0 .19.08.37.13.55.15.5.35 1 .47 1.5a12.48 12.48 0 0 1 .22 1.51c0 .16-.1.32-.11.49s0 .32.12.37.27 0 .4-.06.22-.17.34-.2c.52-.15 1.06-.27 1.59-.42s1.07-.34 1.69-.53z"/>
      <path class="tsk-1" d="M25.54 40.52a3.18 3.18 0 0 1-.16 1.33.63.63 0 0 0 0 .27c.08.53 0 .6-.48.66a6.86 6.86 0 0 1-1.11 0c-.48 0-.6-.17-.46-.61s.24-.6.32-.9a7.66 7.66 0 0 0 .35-2.45 10.48 10.48 0 0 1 .23-1.92v-.64a14.16 14.16 0 0 1 0-1.46c.18-1.35.38-2.7.61-4a30.67 30.67 0 0 1 1.05-4.91 10.26 10.26 0 0 0 .52-3.16 1.2 1.2 0 0 0-.08-.42c-.33-1.2-.73-2.31-1.1-3.49a.77.77 0 0 0-.39-.48 9 9 0 0 1-1.08-.75c-.78-.62-1.56-1.25-2.32-1.9a3.47 3.47 0 0 1-.87-.93 1.92 1.92 0 0 1-.17-1.22 26.76 26.76 0 0 1 1-2.85c.08-.19.32-.32.51-.46a.74.74 0 0 0 .31-.81.4.4 0 0 0-.22-.15c-.55 0-1.11-.09-1.66-.11-.09 0-.19.1-.29.16.07.08.12.18.21.22.57.31.68.93.17 1.29a.49.49 0 0 0-.22.61l.12.59h-.11a4.27 4.27 0 0 0-.33-.68.75.75 0 0 0-.41-.32.88.88 0 0 1-.77-.59.66.66 0 0 1 .29-.74c.05 0 .06-.14.08-.22.08-.23.14-.46.23-.68a.71.71 0 0 1 .69-.47 16.57 16.57 0 0 1 1.73.12 4.82 4.82 0 0 0 1.32-.13 8.53 8.53 0 0 1 1 0c.05 0 .15 0 .15.07.08.38.39.28.65.3l5.26.41h.48c.24 0 .44 0 .49-.33l.35.24V9c.36 0 .8 0 1.06.14a1.8 1.8 0 0 0 1.08.26c.23 0 .33.17.48.19.62.09 1.25.15 1.87.18a7.16 7.16 0 0 1 1.86 0c1.26.46 2.59.38 3.86.72 0 0 .08 0 .12.13h-.81a13.66 13.66 0 0 0-2.47-.06 7 7 0 0 1-2.74-.24 16.52 16.52 0 0 0-2-.19c.11.24.15.44.27.54a12 12 0 0 0 1.19.82A5.53 5.53 0 0 1 36.72 13l.08.12c.11.21.35.44.32.61a3.58 3.58 0 0 1-.45 1 4.47 4.47 0 0 1-1.86 1.47c-.5.3-1 .6-1.51.88a1.11 1.11 0 0 0-.57.8c-.16.8-.28 1.6-.43 2.4s-.29 1.44-.44 2.16a4.73 4.73 0 0 0 .48 1.37l.34.9A21.91 21.91 0 0 1 34 28.84c.18 1.24.71 2.37 1 3.58a9.15 9.15 0 0 1 .2 1.46c.07 1.68.11 3.35.15 5 0 .52 0 .54-.55.67l-.38.13c.41.61.44 1.38 1.13 1.86.24.16.27.63.43 1-.66.06-1.2.12-1.73.15-.27 0-.51-.06-.58-.38 0-.11-.19-.21-.31-.25-.68-.23-.81-.46-.68-1.16a4.66 4.66 0 0 0 0-.85l-3.74.46a12.55 12.55 0 0 1-1.48.21 11.89 11.89 0 0 1-1.56-.2zm9-27l-.41-.46A14.23 14.23 0 0 1 33 11.64a2.24 2.24 0 0 0-1.33-1.1.5.5 0 0 1-.27-.17c-.24-.41-.64-.43-1.05-.46-1-.06-2-.13-3-.21l-2.88-.21a1 1 0 0 0-.41.14 3.61 3.61 0 0 1-.6.35.51.51 0 0 0-.41.58 1 1 0 0 1 0 .39c-.17.61-.36 1.22-.54 1.83a1.3 1.3 0 0 0 .29 1 4.86 4.86 0 0 0 2.68.76 3.89 3.89 0 0 1 1.37.34c.29.12.49.17.67 0a9 9 0 0 1-.38-3.88 1.15 1.15 0 0 1 .9-.84c.49 0 1-.18 1.45.21h.2a4.43 4.43 0 0 0 .13.55c.15.5.34 1 .46 1.51a12.63 12.63 0 0 1 .23 1.5c0 .16-.11.33-.11.49s0 .32.12.37.27 0 .4-.06.21-.16.33-.19l1.59-.42c.54-.2 1.06-.38 1.69-.57z"/>
      <path class="tsk-1" d="M43.16 33v.68c0 .21-.11.44-.16.66a.8.8 0 0 0 0 .27c.08.52.05.59-.48.66a6.86 6.86 0 0 1-1.11 0c-.47 0-.59-.17-.46-.62s.24-.59.32-.9a7.4 7.4 0 0 0 .33-2.48 11.56 11.56 0 0 1 .23-1.92v-.63a14.35 14.35 0 0 1 0-1.47c.18-1.35.38-2.7.61-4a31.8 31.8 0 0 1 1-4.91 10.31 10.31 0 0 0 .52-3.16 1.31 1.31 0 0 0-.08-.43c-.37-1.14-.76-2.28-1.13-3.43a.79.79 0 0 0-.38-.48 11.69 11.69 0 0 1-1.09-.75c-.78-.63-1.56-1.26-2.32-1.91a3.12 3.12 0 0 1-.86-.92 1.87 1.87 0 0 1-.1-1.21 29.43 29.43 0 0 1 1-2.86c.07-.18.32-.32.5-.45a.73.73 0 0 0 .31-.82.39.39 0 0 0-.26-.14c-.55-.05-1.1-.09-1.66-.12-.09 0-.19.11-.28.17s.12.18.2.22c.57.3.68.93.17 1.28a.5.5 0 0 0-.22.62c0 .19.08.39.13.58h-.12a4.12 4.12 0 0 0-.32-.67.77.77 0 0 0-.42-.32.91.91 0 0 1-.74-.54.69.69 0 0 1 .3-.79s.06-.14.08-.21c.08-.23.14-.46.23-.68a.7.7 0 0 1 .75-.47 14.09 14.09 0 0 1 1.73.15A5.24 5.24 0 0 0 40.7.82h1s.15 0 .16.07c.08.39.39.28.64.3l5.27.42h.48c.16 0 .44 0 .48-.34l.35.24v-.04c.36 0 .8 0 1.06.14a1.87 1.87 0 0 0 1.08.25c.23 0 .33.18.49.2.62.08 1.24.14 1.86.17a6.82 6.82 0 0 1 1.87 0c1.25.45 2.59.38 3.85.71 0 0 .09 0 .13.14h-.82a15.77 15.77 0 0 0-2.47-.06 7.15 7.15 0 0 1-2.73-.23 13.51 13.51 0 0 0-2.05-.19c.12.23.15.44.28.54a10.7 10.7 0 0 0 1.2.86 5.71 5.71 0 0 1 1.52 1.5s0 .09.07.13c.11.2.36.43.32.61a3.58 3.58 0 0 1-.45 1 4.47 4.47 0 0 1-1.86 1.46c-.5.3-1 .61-1.51.88a1.09 1.09 0 0 0-.56.8c-.16.8-.28 1.61-.44 2.41s-.29 1.43-.44 2.16a5.3 5.3 0 0 0 .52 1.36c.12.29.23.6.34.9a21.68 21.68 0 0 1 1.32 4.14c.19 1.24.71 2.37 1 3.58a9 9 0 0 1 .2 1.46c.07 1.67.11 3.35.15 5 0 .51 0 .54-.55.67l-.46.14c.41.62.44 1.39 1.13 1.86.24.17.27.63.43 1-.66.06-1.2.12-1.73.15a.49.49 0 0 1-.58-.39.53.53 0 0 0-.31-.25c-.68-.22-.81-.46-.68-1.16a4.57 4.57 0 0 0 0-.84l-3.73.45a11.17 11.17 0 0 1-1.49.22 10.43 10.43 0 0 1-1.56-.21zm9-27l-.41-.46a14.13 14.13 0 0 1-1.13-1.45A2.32 2.32 0 0 0 49.28 3a.47.47 0 0 1-.28-.13c-.25-.41-.64-.42-1.06-.45l-3-.21c-1-.07-1.92-.16-2.87-.22a1 1 0 0 0-.42.15 3.61 3.61 0 0 1-.6.35.51.51 0 0 0-.41.58.82.82 0 0 1 0 .38c-.17.62-.36 1.22-.54 1.83a1.28 1.28 0 0 0 .3 1 4.89 4.89 0 0 0 2.71.72 4.1 4.1 0 0 1 1.37.33c.29.12.49.18.67 0a9.06 9.06 0 0 1-.39-3.89 1.15 1.15 0 0 1 .9-.84c.49 0 1-.18 1.45.2h.2c0 .19.08.37.13.55.15.5.34 1 .46 1.5a11 11 0 0 1 .23 1.51c0 .16-.11.32-.11.49s0 .32.12.37.27 0 .4-.06.21-.17.33-.2c.53-.15 1.07-.27 1.59-.42s1.07-.29 1.69-.48z"/>
    </g>
  </g>
</svg>